<svg width="157" height="52" fill="none" xmlns="http://www.w3.org/2000/svg"><path d="M33.76 4.72c.107.373.133.733.08 1.08a13.83 13.83 0 0 1-.12 1.04c0 .053-.013.093-.04.12v.08c-.053.373-.093.733-.12 1.08-.027.32-.067.653-.12 1-.053.24-.12.48-.2.72l-.24.72c-.027.213-.093.44-.2.68-.08.427-.267.707-.56.84-.213.08-.387.267-.52.56-.053.213-.147.4-.28.56-.107.133-.227.24-.36.32-.213.133-.4.307-.56.52a9.95 9.95 0 0 1-.52.56c-.267.32-.573.493-.92.52l-.32.48c-.107.133-.267.147-.48.04-.16.187-.32.253-.48.2a.607.607 0 0 0-.48-.04c.08-.373.213-.667.4-.88.187-.24.373-.52.56-.84h-.52a3 3 0 0 0 .28-.32c.08-.107.16-.187.24-.24a.506.506 0 0 0 .28-.24l.24-.32c.107-.16.213-.293.32-.4.107-.133.187-.28.24-.44.213-.32.413-.627.6-.92l.56-.96c.053-.133.093-.267.12-.4.053-.16.107-.307.16-.44.027-.053.013-.12-.04-.2a.754.754 0 0 1-.04-.24c.027-.133.04-.253.04-.36a.89.89 0 0 1 .12-.28c.107-.587-.027-.813-.4-.68-.16.053-.333.12-.52.2a36.038 36.038 0 0 0-1.16.44c-.24.107-.507.147-.8.12-.053-.027-.107-.013-.16.04a.465.465 0 0 0-.08.12c-.133.107-.253.2-.36.28-.08.053-.187.107-.32.16-.16.053-.333.12-.52.2-.16.08-.307.173-.44.28l-.48.32c-.133.08-.253.187-.36.32a.845.845 0 0 1-.4.28l-.48.16c-.427.16-.773.4-1.04.72a.506.506 0 0 1-.28.24.358.358 0 0 0-.24.2c-.16.16-.347.267-.56.32-.187.027-.333.16-.44.4 0-.027-.04 0-.12.08-.133.053-.267.12-.4.2l-.4.24v.16c-.08.133-.133.213-.16.24-.133.08-.267.147-.4.2-.133.053-.267.12-.4.2-.373.24-.773.48-1.2.72l-.04.04c-.133.32-.333.573-.6.76-.24.16-.48.347-.72.56-.213.187-.4.4-.56.64-.16.24-.333.427-.52.56-.16.187-.32.347-.48.48-.16.133-.333.28-.52.44a1.31 1.31 0 0 0-.16.2c-.053.08-.107.173-.16.28a.939.939 0 0 1-.2.32c-.16.213-.28.36-.36.44-.213.107-.36.32-.44.64-.107.293-.213.573-.32.84l-.24.72c-.16.373-.107.653.16.84.107.053.2.107.28.16a.89.89 0 0 1 .28.12.628.628 0 0 0 .12-.16l.16-.24c.213.293.427.453.64.48.24 0 .493-.053.76-.16.053-.053.107-.08.16-.08a.355.355 0 0 0 .16-.04l.8-.32c.267-.107.547-.227.84-.36.24-.08.48-.147.72-.2.24-.08.493-.147.76-.2.08 0 .133-.013.16-.04.213-.16.413-.267.6-.32.213-.053.453.027.72.24v-.4c.16-.053.333-.093.52-.12.187-.053.387-.107.6-.16.053.053.093.12.12.2.053.053.107.12.16.2.107-.053.24-.107.4-.16.24-.107.24-.253 0-.44l.24-.12c.08-.027.16.04.24.2.027.133.133.173.32.12l.72-.16c.24-.053.493-.093.76-.12a7.288 7.288 0 0 1 1.08 0h.6a1.2 1.2 0 0 0 .64-.2c.027-.027.053-.027.08 0h.12c.267.053.547.08.84.08.293 0 .587.027.88.08.107 0 .213.013.32.04.107.027.227.053.36.08a.64.64 0 0 0 .32 0c.107-.027.187-.107.24-.24.187-.293.373-.307.56-.04.187.213.373.44.56.68.213.213.387.44.52.68.187.32.36.627.52.92.187.267.333.587.44.96.08.32.16.653.24 1 .107.32.213.653.32 1 .053.107.08.2.08.28-.187.213-.24.427-.16.64.107.213.16.427.16.64v.52c.027.16.04.307.04.44 0 .267-.013.547-.04.84v.88c0 1.013-.213 1.893-.64 2.64-.107.16-.187.333-.24.52-.027.187-.08.373-.16.56-.16.267-.307.533-.44.8-.133.24-.32.427-.56.56a.713.713 0 0 0-.2.2c-.107.187-.2.373-.28.56-.08.187-.187.347-.32.48s-.28.267-.44.4a4.883 4.883 0 0 0-.4.36 2.88 2.88 0 0 0-.36.44l-.32.4-.92.92c-.053.053-.12.187-.2.4-.213 0-.413.093-.6.28-.32.427-.747.747-1.28.96-.08 0-.12.027-.12.08-.213.32-.44.533-.68.64-.24.08-.493.2-.76.36-.08.08-.12.107-.12.08-.16.293-.36.44-.6.44s-.467.067-.68.2a3.106 3.106 0 0 0-.16-.4 2.426 2.426 0 0 1-.6.32c.107.08.24.2.4.36-.16.16-.32.307-.48.44-.133.133-.28.24-.44.32a.445.445 0 0 1-.2.04c-.133-.08-.267-.027-.4.16-.133.107-.253.2-.36.28-.107.107-.253.147-.44.12a.17.17 0 0 0-.16 0l-.16.16c-.213.133-.44.267-.68.4-.24.16-.507.253-.8.28a.39.39 0 0 0-.2.08 1.31 1.31 0 0 1-.16.2c-.187.16-.307.24-.36.24-.053.027-.173.013-.36-.04-.16.32-.4.493-.72.52-.24.027-.48.093-.72.2-.24.107-.507.187-.8.24-.32.053-.573.027-.76-.08-.213-.133-.413-.173-.6-.12-.16.08-.333.173-.52.28a.688.688 0 0 1-.44.16h-.4a1.174 1.174 0 0 0-.68.04 1.556 1.556 0 0 1-.6.04 34.704 34.704 0 0 0-1.28-.16 3.71 3.71 0 0 1-.72-.08 11.04 11.04 0 0 1-1-.2 5.843 5.843 0 0 1-.88-.32l-.4-.16a1.219 1.219 0 0 1-.4-.28.623.623 0 0 0-.32-.32A1.415 1.415 0 0 1 6 44.2a9.57 9.57 0 0 0-.84-.6 4.295 4.295 0 0 1-.8-.56 1.615 1.615 0 0 1-.52-.52 3.655 3.655 0 0 0-.52-.64.493.493 0 0 1-.08-.28 1.564 1.564 0 0 0-.12-.32l-.24-.24a1.004 1.004 0 0 1-.24-.4 8.34 8.34 0 0 1-.44-.84 13.53 13.53 0 0 0-.44-.88.445.445 0 0 1-.04-.2 1.238 1.238 0 0 0-.08-.24c-.24-.373-.4-.773-.48-1.2-.107-.453-.2-.907-.28-1.36a4.252 4.252 0 0 1-.16-.8 9.956 9.956 0 0 1-.12-.88 14.132 14.132 0 0 1-.04-1.84c.027-.64.107-1.267.24-1.88.053-.213.133-.4.24-.56a3.96 3.96 0 0 0 .2-.6c.053-.107.093-.213.12-.32.027-.107.067-.213.12-.32a.966.966 0 0 1 .56-.56c-.053.133-.107.28-.16.44l-.16.48c.293.213.427.467.4.76l-.16.88c-.027.133-.04.267-.04.4-.027.107-.04.227-.04.36.027.133.027.28 0 .44-.027.133-.04.28-.04.44 0 .373-.013.733-.04 1.08-.027.32-.013.653.04 1 .027.267.08.533.16.8.053.24.12.467.2.68 0 .16.053.28.16.36l.88.88c.267.293.573.507.92.64.24.107.48.24.72.4.24.133.493.253.76.36.187.107.387.187.6.24l.64.16c.293.053.573.093.84.12.267.027.547.067.84.12.08.027.173.053.28.08.107.027.2.04.28.04.293.053.56.107.8.16.24.053.467.053.68 0 .347-.053.68-.04 1 .04.32.053.613.027.88-.08.16-.027.32-.04.48-.04h.48a2.93 2.93 0 0 0 .76-.16c.24-.08.493-.133.76-.16.24-.053.48-.093.72-.12.267-.027.507-.147.72-.36.027-.08.067-.12.12-.12.213.053.4.027.56-.08a1.76 1.76 0 0 1 .6-.28c.187-.053.373-.12.56-.2l.56-.32c.267-.133.52-.267.76-.4.267-.16.533-.307.8-.44.133-.053.253-.093.36-.12.133-.027.227-.147.28-.36.107.053.187.08.24.08a.503.503 0 0 0 .2-.12 1.31 1.31 0 0 1 .16-.2.628.628 0 0 1 .16-.12c.24-.107.493-.267.76-.48.24-.187.467-.347.68-.48.24-.16.467-.32.68-.48.213-.187.44-.373.68-.56.24-.187.467-.373.68-.56l.72-.6.12-.12a.628.628 0 0 0 .16-.12c.213-.187.413-.36.6-.52.187-.187.36-.387.52-.6l.4-.4c.133-.133.267-.28.4-.44.293-.373.573-.76.84-1.16.267-.4.547-.827.84-1.28.133-.213.24-.44.32-.68.107-.24.227-.48.36-.72.027-.027.04-.053.04-.08 0-.053.013-.093.04-.12.213-.373.347-.76.4-1.16.08-.427.133-.867.16-1.32 0-.507-.12-.893-.36-1.16l-.4-.56a2.119 2.119 0 0 1-.2-.76c-.027-.213-.093-.347-.2-.4-.08-.053-.213-.08-.4-.08-.08 0-.173-.013-.28-.04a1.777 1.777 0 0 0-.32-.16c-.48.24-1.027.28-1.64.12-.08-.053-.2-.053-.36 0-.16.053-.307.107-.44.16-.107.027-.2.053-.28.08-.053 0-.133.013-.24.04-.107.027-.213.04-.32.04a.754.754 0 0 0-.24-.04c-.133 0-.213.013-.24.04-.08.027-.16.067-.24.12a.657.657 0 0 1-.2.04.691.691 0 0 1-.4.04c-.133-.027-.267.067-.4.28-.027.027-.08.04-.16.04a1.465 1.465 0 0 0-.68 0 2.23 2.23 0 0 0-.64.28 4.78 4.78 0 0 1-.36.16.794.794 0 0 1-.36.08 1.2 1.2 0 0 0-.64.2c-.213.133-.427.173-.64.12-.027-.027-.053-.027-.08 0-.027.027-.04.053-.04.08a1.7 1.7 0 0 1-.44.28.894.894 0 0 1-.32.12c-.107 0-.2.067-.28.2-.027.027-.053.04-.08.04a.916.916 0 0 0-.48.12c-.133.053-.253.187-.36.4 0 .16-.04.2-.12.12-.16-.053-.293-.027-.4.08-.08.08-.187.16-.32.24l-.24.08h-.2a1.431 1.431 0 0 0-.36.12 1.567 1.567 0 0 0-.32.12c-.16.053-.307.107-.44.16-.107.053-.24.107-.4.16-.187.133-.387.093-.6-.12-.213-.24-.427-.387-.64-.44a1.58 1.58 0 0 0-.72-.08c-.133.053-.267.013-.4-.12a3.238 3.238 0 0 1-.96-1.52c-.08-.16-.173-.32-.28-.48a1.865 1.865 0 0 1-.16-.64 2.462 2.462 0 0 0-.2-.76 1.93 1.93 0 0 1-.04-.88 2.381 2.381 0 0 1-.2-1.12c.053-.373.093-.76.12-1.16.053-.427.12-.867.2-1.32.107-.453.293-.84.56-1.16v-.12c0-.24.067-.44.2-.6.133-.16.253-.347.36-.56.053-.213.133-.387.24-.52a6.28 6.28 0 0 1 .32-.44c.24-.32.467-.627.68-.92.24-.32.467-.627.68-.92l.12-.12a.262.262 0 0 1 .12-.12l.4-.16c.133-.053.187-.227.16-.52 0-.053.053-.107.16-.16a67.114 67.114 0 0 1 1.52-1.32c.533-.453 1.067-.92 1.6-1.4h.04c.213-.08.4-.213.56-.4a4.48 4.48 0 0 1 .56-.48.94.94 0 0 0 .32-.2c.107-.08.213-.147.32-.2.133-.133.293-.253.48-.36.187-.107.36-.213.52-.32.133-.107.267-.227.4-.36.16-.133.32-.227.48-.28a.96.96 0 0 0 .52-.32.959.959 0 0 1 .48-.32c.16-.053.32-.147.48-.28.187-.133.373-.253.56-.36.187-.107.36-.213.52-.32.187-.107.36-.2.52-.28.453-.187.88-.4 1.28-.64.427-.24.867-.387 1.32-.44a2.94 2.94 0 0 0 .68-.24c.24-.107.467-.213.68-.32.4-.187.8-.28 1.2-.28.4-.027.787.013 1.16.12.133.027.227.08.28.16.08.053.16.12.24.2a3.5 3.5 0 0 1 .52.76c.16.267.307.547.44.84.187.4.28.84.28 1.32.027.053.027.12 0 .2 0 .08.013.147.04.2ZM2.96 38.16c.107-.107.16-.147.16-.12 0-.107-.027-.16-.08-.16-.027-.027-.067-.013-.12.04 0 .08.013.16.04.24Zm17.44-.04c.133 0 .213-.013.24-.04.053-.08.093-.16.12-.24.027-.107.067-.213.12-.32h-.04c0-.027-.013-.04-.04-.04-.16.08-.293.173-.4.28v.36Zm-.88 0-.16.24a1.31 1.31 0 0 1-.2.16c.24.187.427.147.56-.12.027-.027.04-.067.04-.12v-.16h-.16c-.027-.027-.053-.027-.08 0Zm-2.8.92c-.133-.133-.213-.187-.24-.16-.027 0-.093.093-.2.28.24.107.387.067.44-.12Zm-2.08.48c0 .027-.013.04-.04.04-.027 0-.053.013-.08.04.053.107.107.2.16.28.08-.08.107-.12.08-.12l-.12-.24Zm-3.32.52c-.107-.053-.2-.053-.28 0a.507.507 0 0 1-.24.12c.027.027.04.067.04.12a2.19 2.19 0 0 1 .48-.08v-.16Zm-3.84-.08c.133.187.227.28.28.28.08 0 .187-.08.32-.24a.493.493 0 0 0-.28-.08l-.32-.08v.12Zm-.56-.12c0 .053-.013.08-.04.08l.16.08c.027 0 .067-.027.12-.08a.355.355 0 0 0-.04-.16l-.2.08Zm-3.48-1.52c-.027.027-.04.08-.04.16.267.053.507.187.72.4.24.187.493.333.76.44.08 0 .147.013.2.04-.213-.347-.44-.573-.68-.68a5.49 5.49 0 0 1-.68-.36h-.08c-.027-.027-.053-.04-.08-.04-.053 0-.093.013-.12.04Zm.2.88c.053 0 .093-.013.12-.04-.027-.027-.04-.067-.04-.12V39c-.053 0-.107.027-.16.08 0 .08.027.12.08.12Zm2.6 2.56c.133.293.253.373.36.24.133-.133.267-.2.4-.2a1.258 1.258 0 0 0-.4-.16c-.107-.053-.227-.013-.36.12Zm.76-.72.04-.04c0-.027.013-.053.04-.08 0-.027.013-.053.04-.08.213.053.387.093.52.12.133.027.267.067.4.12a.74.74 0 0 0 .48 0c.16-.08.333-.027.52.16v.04c.027 0 .04-.013.04-.04.213-.187.4-.227.56-.12.187.08.373.12.56.12.32-.053.653-.067 1-.04.347.027.707.053 1.08.08.027 0 .053-.013.08-.04.187-.213.387-.28.6-.2.213.053.427.04.64-.04.107-.027.2-.04.28-.04.107 0 .2-.027.28-.08.16-.053.333-.107.52-.16a3.99 3.99 0 0 1 .6-.12c.107-.027.2-.04.28-.04.107 0 .213-.04.32-.12a.806.806 0 0 1 .44-.24c.16-.053.307.04.44.28.24-.4.48-.693.72-.88a1.69 1.69 0 0 1 .96-.36l.12-.36a.99.99 0 0 1 .2.36c.107-.08.2-.16.28-.24.107-.107.147-.267.12-.48-.24 0-.48.067-.72.2s-.467.253-.68.36c-.08 0-.133.04-.16.12-.08.187-.187.28-.32.28a.983.983 0 0 0-.36.08c-.347.08-.68.173-1 .28-.32.107-.653.213-1 .32-.16.053-.32.093-.48.12l-.4.08c-.32.053-.627.12-.92.2a3.252 3.252 0 0 1-.88.04c-.053 0-.093.013-.12.04h-.08a.657.657 0 0 0-.2.04.754.754 0 0 1-.24.04h-.48c-.16-.027-.32-.04-.48-.04a3.95 3.95 0 0 0-.56-.04h-.6c.053-.213.147-.307.28-.28.16 0 .293-.053.4-.16-.027-.133-.08-.2-.16-.2h-.2c-.16.053-.333.093-.52.12-.16 0-.32-.04-.48-.12-.107-.053-.187-.053-.24 0-.053.027-.107.107-.16.24-.24.347-.547.413-.92.2-.16-.107-.28-.133-.36-.08-.24.08-.427-.027-.56-.32.053-.16.08-.307.08-.44a2.24 2.24 0 0 0-1.12-.32.657.657 0 0 0-.2.04c-.08 0-.133.027-.16.08-.107.133-.213.2-.32.2a.645.645 0 0 1-.28-.08.983.983 0 0 0-.36-.08.583.583 0 0 0-.36.04l.64.64c.267-.107.52-.013.76.28.08.133.173.213.28.24.24.053.48.12.72.2.267.053.52.12.76.2ZM17.76 40c0-.027-.027-.12-.08-.28a.628.628 0 0 1-.16.12.467.467 0 0 0-.08.12c0 .027.027.12.08.28.107-.08.187-.16.24-.24ZM7.4 42.16c.133.213.267.293.4.24a.624.624 0 0 1 .44 0l-.4-.24c-.107-.107-.253-.107-.44 0Zm7.32.96c.133.107.213.147.24.12.027 0 .053-.08.08-.24a1.567 1.567 0 0 1-.32.12Zm3.28-.8a.355.355 0 0 0 .16-.04c.053-.027.12-.067.2-.12l-.2-.28c-.133.08-.2.133-.2.16 0 .187.013.28.04.28Zm5.8-4.48c.053-.16.12-.293.2-.4a.65.65 0 0 1 .32-.28l-.08-.12-.48.16c-.133.053-.267.12-.4.2-.027 0-.053.04-.08.12v.2c-.027.267-.12.347-.28.24a.467.467 0 0 1-.12-.08c0-.027-.013-.053-.04-.08-.08.053-.16.12-.24.2a.63.63 0 0 1-.24.16c-.24.08-.467.2-.68.36-.187.133-.387.267-.6.4-.293.187-.573.36-.84.52-.267.16-.547.347-.84.56-.32.187-.653.347-1 .48-.347.107-.68.267-1 .48-.053.053-.133.08-.24.08a1.567 1.567 0 0 1-.32.12 1.567 1.567 0 0 0-.32.12 12.4 12.4 0 0 0-.68.28l-.72.32a.306.306 0 0 1-.12.04l-.08.04-.64.08c-.187 0-.387.027-.6.08l-.88.16c-.293.027-.573.053-.84.08-.533.027-1.067.04-1.6.04-.507-.027-1.04-.08-1.6-.16-.107 0-.187.027-.24.08.133.213.227.347.28.4.08.027.227.04.44.04h.72c.213-.16.44-.2.68-.12.267.08.533.093.8.04a.854.854 0 0 1 .44.04c.16.027.307.04.44.04l.04.04a.355.355 0 0 0-.04.16c0 .053-.013.133-.04.24.053-.08.12-.12.2-.12.08.027.16.04.24.04.08.027.147.04.2.04.08 0 .16-.053.24-.16a3.09 3.09 0 0 0-.36-.16c.347-.187.68-.253 1-.2.347.027.68.067 1 .12a.939.939 0 0 0 .2-.32.374.374 0 0 1 .2.28c.027.107.12.133.28.08 0-.16-.013-.293-.04-.4.133-.027.227-.027.28 0 .053 0 .187.053.4.16.133.053.227.067.28.04.053-.027.093-.147.12-.36v-.12a1.76 1.76 0 0 1 .6-.28.43.43 0 0 1 .24-.08.983.983 0 0 0 .36-.08.603.603 0 0 0 .24-.2.603.603 0 0 1 .24-.2c.453.16.773.013.96-.44.347-.107.653-.213.92-.32.293-.133.573-.387.84-.76.027.053.08.093.16.12.08.027.147-.053.2-.24.027-.027.053-.04.08-.04a.306.306 0 0 0 .12-.04c.16-.08.32-.173.48-.28l.56-.32c.107-.08.2-.147.28-.2l.28-.28.4-.24c.133-.107.24-.24.32-.4Zm1.4-.88c.027-.027.013-.133-.04-.32-.133.053-.24.107-.32.16-.08.053-.173.107-.28.16.133.133.24.187.32.16a.902.902 0 0 0 .32-.16Zm.04-2v-.12a.556.556 0 0 0-.24.04v.08h.24Zm.16-.24.08-.04c0-.107-.027-.173-.08-.2l-.08.08c0 .053.027.107.08.16Zm.72.52c.133-.107.267-.2.4-.28.133-.08.267-.173.4-.28-.08-.16-.147-.24-.2-.24-.027-.027-.093.027-.2.16-.08.08-.16.173-.24.28-.053.08-.12.173-.2.28v.04c.027 0 .04.013.04.04Zm-9.48-24.12c-.053.053-.093.08-.12.08-.027 0-.04.027-.04.08v.08c0 .053.013.08.04.08.08 0 .12-.027.12-.08v-.24Zm2.48-3.2c.08.213.147.333.2.36.053 0 .16-.067.32-.2a2.289 2.289 0 0 1-.52-.16Zm32.352 16.52v.04-.04Zm.56 16.52c.054.293.16.533.32.72.187.187.36.347.52.48.16.107.28.2.36.28.08.053.04.12-.12.2a.585.585 0 0 0-.36.12c-.24.16-.48.2-.72.12l-.64-.24c-.213-.053-.373-.147-.48-.28a3.635 3.635 0 0 1-.28-.4 2.048 2.048 0 0 0-.48-.48 1.746 1.746 0 0 1-.4-.48c-.346-.667-.64-1.4-.88-2.2-.293-.907-.36-1.8-.2-2.68.16-.88.387-1.747.68-2.6.294-.933.614-1.84.96-2.72.347-.907.72-1.787 1.12-2.64.214-.427.427-.84.64-1.24l.64-1.28v-.04c.027-.027.04-.067.04-.12h-.16l-.8.8c-.24.24-.48.493-.72.76-.213.213-.4.427-.56.64-.16.213-.346.427-.56.64-.24.267-.493.533-.76.8-.24.24-.48.493-.72.76l-.64.72c-.186.213-.386.44-.6.68-.08.133-.16.253-.24.36a3 3 0 0 1-.28.32.271.271 0 0 1-.2.08h-.16a2.844 2.844 0 0 0-.12.36c0 .08-.026.147-.08.2-.293.373-.6.747-.92 1.12-.293.373-.6.747-.92 1.12l-.04.04c-.053.347-.186.64-.4.88l-.56.72c-.213.293-.44.56-.68.8-.213.24-.426.493-.64.76-.186.213-.36.453-.52.72-.133.24-.306.453-.52.64-.213.133-.36.32-.44.56-.053.213-.2.36-.44.44-.053 0-.106.027-.16.08-.026.027-.026.067 0 .12.054.187.027.32-.08.4-.106.08-.226.187-.36.32-.346.293-.666.68-.96 1.16-.24.32-.546.493-.92.52-.373.027-.706-.107-1-.4a4.068 4.068 0 0 1-.48-.48 1.7 1.7 0 0 1-.2-.68c0-.027-.026-.067-.08-.12a1.492 1.492 0 0 1-.68-.6c-.16-.293-.306-.587-.44-.88l-.16-.4a3.713 3.713 0 0 1-.12-.44 8.32 8.32 0 0 1 .16-3.96c.16-.64.334-1.267.52-1.88l.64-1.84a1.55 1.55 0 0 1 .08-.2.628.628 0 0 0 .12-.16c.054-.133.094-.253.12-.36.027-.107.067-.227.12-.36.08-.213.174-.427.28-.64.107-.24.214-.467.32-.68l.24-.56.24-.56c.16-.293.307-.573.44-.84l.48-.88c.294-.507.574-1 .84-1.48.267-.507.547-1.013.84-1.52a35.442 35.442 0 0 1 1.84-2.76c.374-.533.76-1.067 1.16-1.6.4-.533.827-1.067 1.28-1.6.294-.347.6-.667.92-.96.347-.32.68-.627 1-.92a4.801 4.801 0 0 1 2.04.84c.587.427 1.16.867 1.72 1.32l.88.72c.294.24.587.493.88.76.134.08.24.173.32.28l.28.28.96.88c.347.293.68.587 1 .88.054.053.12.107.2.16.08.053.174.107.28.16a1.567 1.567 0 0 0-.32.12v.12c.134.08.227.093.28.04.187-.107.36-.2.52-.28.16-.107.334-.213.52-.32.107-.107.2-.133.28-.08.16.053.347.093.56.12.214 0 .347.147.4.44.027.053.094.093.2.12a.89.89 0 0 1 .28.12c.08.053.147.093.2.12.08.027.16.067.24.12.054.027.094.04.12.04.054-.027.107-.013.16.04.187.213.374.413.56.6.187.187.36.387.52.6.134.213.16.493.08.84-.053.347-.186.587-.4.72-.08.08-.12.133-.12.16-.053.08-.093.16-.12.24 0 .08-.026.147-.08.2-.373.4-.666.84-.88 1.32a1.219 1.219 0 0 1-.28.4 4.883 4.883 0 0 0-.36.4l-.4.64a7.755 7.755 0 0 0-.36.64c-.213.4-.426.813-.64 1.24-.186.4-.44.773-.76 1.12-.133.133-.24.293-.32.48-.08.16-.16.333-.24.52a6.37 6.37 0 0 0-.44 1l-.16.56c-.026.16-.08.32-.16.48-.053.133-.12.267-.2.4-.08.107-.093.24-.04.4l-.04.08c-.293.133-.426.333-.4.6.027.24 0 .467-.08.68a2.45 2.45 0 0 1-.24.44c-.08.133-.146.28-.2.44l-.24 1.2c-.053.373-.093.76-.12 1.16v.64c.027.187.054.36.08.52Zm-16.56-4.4c-.186-.08-.293-.16-.32-.24a.65.65 0 0 1 0-.32l.16-.32a.451.451 0 0 0 .04-.32c-.453.32-.573.68-.36 1.08.027.053.08.093.16.12.08.027.147.067.2.12l.12-.12Zm.2-2.16c.08-.16.147-.32.2-.48l.24-.56-.24.16a.503.503 0 0 0-.2.12c-.186.32-.333.627-.44.92a.493.493 0 0 0-.08.28c.027.107.04.2.04.28.027.027.08.04.16.04a4.78 4.78 0 0 1 .16-.36l.16-.4Zm.8-1.84c.054-.107.04-.2-.04-.28a.27.27 0 0 0-.24-.12c-.133.08-.2.173-.2.28-.026.08.014.173.12.28a9.07 9.07 0 0 1-.4.28c.054.08.12.147.2.2.08.027.147.067.2.12a4.78 4.78 0 0 1 .16-.36c.08-.133.147-.267.2-.4Zm.12-.52c.054-.053.08-.107.08-.16 0-.053.027-.107.08-.16.054-.08.094-.16.12-.24a.89.89 0 0 1 .12-.28c.134-.213.267-.4.4-.56.134-.187.254-.387.36-.6.134-.373.267-.733.4-1.08.134-.373.307-.733.52-1.08.054-.053.067-.107.04-.16 0-.08.027-.147.08-.2.214-.373.427-.707.64-1 .054-.107.094-.2.12-.28l.16-.32c-.053-.053-.08-.093-.08-.12a.628.628 0 0 1-.16.12c-.053 0-.106.027-.16.08-.186.267-.36.533-.52.8-.16.24-.333.507-.52.8a.355.355 0 0 0-.04.16c0 .027-.013.053-.04.08-.293.187-.48.413-.56.68l-.16.8a.306.306 0 0 0-.04.12c0 .027-.013.053-.04.08a2.88 2.88 0 0 0-.36.44c-.106.133-.133.307-.08.52.08.08.067.12-.04.12-.24.08-.36.227-.36.44a.704.704 0 0 1-.2.52c-.053.027-.066.093-.04.2.027.08.067.16.12.24 0 .027.027.053.08.08.054 0 .08-.013.08-.04Zm2.64-4.28c.24-.16.36-.253.36-.28.027-.053-.04-.133-.2-.24l-.08.24c-.026.08-.053.173-.08.28Zm-.32 2.96c.027-.027.027-.067 0-.12l-.08-.16a.467.467 0 0 1-.12.08c-.026 0-.053.013-.08.04a1.7 1.7 0 0 0-.28.44v.08c.027 0 .04.013.04.04.187-.107.36-.24.52-.4Zm-2 3.88c.027.027.067.04.12.04.054-.133.094-.253.12-.36a4.78 4.78 0 0 0 .16-.36h-.08c-.026-.027-.066-.04-.12-.04a2.844 2.844 0 0 0-.12.36.983.983 0 0 1-.08.36Zm6.64-.96c.267-.133.467-.227.6-.28-.133-.133-.24-.187-.32-.16-.053.027-.146.173-.28.44Zm.6-.48.24-.36c0-.053-.026-.093-.08-.12l-.08-.08a1.14 1.14 0 0 0-.2.24c-.026.027.014.133.12.32Zm5.68-5.24c-.026-.027-.04-.053-.04-.08 0-.027-.013-.053-.04-.08v-.08l-.24.16c-.08.027-.16.067-.24.12.054.107.08.173.08.2l.48-.24Zm1.44-2.44c.56-.533 1.12-1.08 1.68-1.64.56-.56 1.12-1.107 1.68-1.64-.053-.053-.08-.093-.08-.12a38.5 38.5 0 0 0-1.08.88 38.5 38.5 0 0 1-1.08.88l-.4.4a.704.704 0 0 1-.52.2c.427-.373.84-.733 1.24-1.08.427-.373.867-.747 1.32-1.12a6.183 6.183 0 0 0-.32-.12 1.012 1.012 0 0 1-.24-.12l-.4-.16a1.565 1.565 0 0 0-.36-.2 2.099 2.099 0 0 1-.32-.2.939.939 0 0 0-.32-.2.89.89 0 0 0-.28-.12 1.012 1.012 0 0 1-.24-.12c-.32-.213-.64-.44-.96-.68a7.786 7.786 0 0 0-.92-.72c-.16-.107-.293-.133-.4-.08-.32.16-.6.36-.84.6-.373.373-.733.76-1.08 1.16-.346.4-.706.8-1.08 1.2a3 3 0 0 1-.32.28c-.106.08-.213.187-.32.32a2.048 2.048 0 0 1-.48.48c-.186.107-.333.28-.44.52-.08.213-.2.413-.36.6a4.96 4.96 0 0 0-.44.6l-.08.04c-.133.213-.266.413-.4.6-.106.16-.226.333-.36.52-.053.08-.093.16-.12.24-.026.08-.066.16-.12.24-.24.4-.493.8-.76 1.2a8.923 8.923 0 0 0-.72 1.2c-.266.453-.506.907-.72 1.36-.186.453-.386.92-.6 1.4-.266.587-.52 1.173-.76 1.76-.24.56-.493 1.133-.76 1.72l-.16.48c-.053.16-.186.253-.4.28 0 .08.014.16.04.24.027.053.014.107-.04.16-.186.213-.306.44-.36.68a69.6 69.6 0 0 0-.08.76.445.445 0 0 0-.04.2.355.355 0 0 1-.04.16 3.54 3.54 0 0 0-.2.92c0 .32.027.627.08.92 0 .053.054.187.16.4a86.166 86.166 0 0 1 5.84-7.48 173.933 173.933 0 0 1 6.36-6.96c-.133.213-.28.4-.44.56a8.81 8.81 0 0 0-.4.52c-.24.267-.48.52-.72.76-.213.24-.426.493-.64.76-.16.16-.28.293-.36.4a1.31 1.31 0 0 0-.16.2l-.16.24a.467.467 0 0 1-.12.08c-.053.027-.08.053-.08.08.054.187.04.293-.04.32a2.77 2.77 0 0 1-.32.08.93.93 0 0 0-.24.16l-.48.56c-.133.16-.28.347-.44.56a.355.355 0 0 0-.04.16v.16l-.24.16-.24.16a.467.467 0 0 0-.08.12c0 .053.014.093.04.12l.08.08c.054.027.094.027.12 0 .16 0 .28-.067.36-.2.16-.16.307-.32.44-.48l.48-.56c.054-.08.12-.16.2-.24a.63.63 0 0 0 .16-.24c.027-.24.147-.333.36-.28.134 0 .24-.093.32-.28.134-.32.294-.573.48-.76l.64-.64.64-.64a.594.594 0 0 0 .16-.28l.16-.32a.503.503 0 0 1 .2-.12.503.503 0 0 0 .2-.12c.107-.08.2-.173.28-.28l.24-.32c.08-.107.16-.2.24-.28.107-.107.187-.213.24-.32.08-.133.2-.24.36-.32.187-.107.36-.133.52-.08.267.16.494.08.68-.24-.133 0-.266.013-.4.04a1.85 1.85 0 0 0-.36.04c0-.027-.013-.053-.04-.08v-.08Zm25.44 12.08c.027.32 0 .533-.08.64-.08.107-.24.133-.48.08l.08-.16.08-.16.4-.4Zm10.44-18.4c0 .053-.013.093-.04.12-.026 0-.026.027 0 .08.054.24.04.453-.04.64-.053.16-.146.32-.28.48-.133.133-.28.267-.44.4a1.75 1.75 0 0 0-.4.36l-.48.56c-.16.16-.306.347-.44.56-.64.853-1.226 1.68-1.76 2.48-.08.16-.2.32-.36.48-.133.133-.173.307-.12.52 0 .027-.026.067-.08.12-.08.133-.16.253-.24.36-.08.107-.173.227-.28.36-.133.16-.226.333-.28.52-.026.187-.146.347-.36.48-.08.053-.133.147-.16.28a.71.71 0 0 1-.08.32c-.053.107-.12.2-.2.28a.89.89 0 0 0-.12.28c-.186.533-.52 1.04-1 1.52a13.22 13.22 0 0 0-.6.64c-.186.213-.28.493-.28.84 0 .053-.026.107-.08.16a.355.355 0 0 0-.04.16 7.835 7.835 0 0 1-.08.36v.32l-.56.64c-.16.187-.346.4-.56.64.16.053.267.107.32.16.054.053.054.12 0 .2 0 .053-.04.08-.12.08a.862.862 0 0 0-.52.24c-.106.133-.133.347-.08.64l.16-.32c.08-.107.147-.213.2-.32l.04.04c.027 0 .054.013.08.04l-.16.4c-.053.107-.106.24-.16.4a7.996 7.996 0 0 0-.44-.16l-.32.72c-.106.24-.226.48-.36.72.214.107.36.107.44 0a1.59 1.59 0 0 0 .24-.4c.107.373-.04.587-.44.64-.16.027-.32.08-.48.16-.133.053-.28.107-.44.16.027.08.08.12.16.12h.2c.08 0 .134.027.16.08.054.027.067.107.04.24-.16.107-.253.187-.28.24a10.58 10.58 0 0 0-.36.8c-.08.267-.173.533-.28.8l-.72 1.92a.996.996 0 0 0 0 .56l.4-.64c.134-.24.267-.467.4-.68l.04.04c.027 0 .054.013.08.04a.445.445 0 0 0-.04.2c0 .08-.013.147-.04.2l-.32.96c-.08.32-.186.627-.32.92-.08.187-.186.347-.32.48-.106.16-.226.347-.36.56h.36c-.053.293-.12.6-.2.92-.053.32-.106.627-.16.92a2.286 2.286 0 0 0-.12.4l-.08.4c-.026.267-.04.52-.04.76v.76c0 .16-.026.307-.08.44-.026.133-.16.173-.4.12.054.213.08.4.08.56.027.16.067.32.12.48.054.16.134.227.24.2.134 0 .267-.013.4-.04.134-.053.254-.093.36-.12.134 0 .267-.013.4-.04 0 .8-.333 1.28-1 1.44-.133 0-.213-.027-.24-.08a.868.868 0 0 0-.56-.32 2.815 2.815 0 0 1-.64-.16c-.08-.027-.146-.093-.2-.2a.713.713 0 0 0-.2-.2c-.72-.533-1.2-1.173-1.44-1.92a8.702 8.702 0 0 1-.32-2.4 13.68 13.68 0 0 1 0-1.48c.027-.48.067-.96.12-1.44a6.37 6.37 0 0 1 .12-.8c.08-.267.147-.547.2-.84l.32-1.36c.107-.453.227-.907.36-1.36.134-.453.28-.893.44-1.32.16-.427.307-.853.44-1.28l.88-2.32c.294-.8.6-1.587.92-2.36.374-.933.747-1.853 1.12-2.76.4-.907.8-1.827 1.2-2.76.294-.613.6-1.213.92-1.8.32-.587.627-1.187.92-1.8.32-.587.627-1.173.92-1.76l.96-1.76c.054-.133.12-.253.2-.36.107-.107.187-.227.24-.36v-.04c-.48.4-.96.813-1.44 1.24-.48.4-.946.8-1.4 1.2-.026 0-.066-.027-.12-.08.534-.453 1.04-.893 1.52-1.32a67.265 67.265 0 0 0 1.52-1.32v-.08c.027-.027.04-.067.04-.12.16-.213.307-.44.44-.68.16-.24.334-.467.52-.68.24-.267.52-.507.84-.72.454-.32.88-.28 1.28.12.054.053.12.08.2.08.294.053.534.173.72.36.187.16.347.36.48.6.107.187.254.333.44.44.187.107.36.227.52.36l.12.12c.027 0 .054.027.08.08.107.133.2.28.28.44.107.133.2.267.28.4.027.053.04.12.04.2 0 .08.014.147.04.2Zm-10.92 10.08a14.92 14.92 0 0 0-1.36 3.32c.187 0 .28-.027.28-.08l.36-1.32c.054-.16.12-.28.2-.36.374-.48.547-1 .52-1.56Zm-2 3.4a.43.43 0 0 0-.08.24c0 .08-.013.16-.04.24.027.027.054.04.08.04.027 0 .054.013.08.04.08-.213.16-.4.24-.56.08-.187.16-.387.24-.6 0-.053-.026-.107-.08-.16-.106.053-.16.093-.16.12l-.16.32a1.567 1.567 0 0 1-.12.32Zm-1.88 5.32c-.08.213-.173.453-.28.72.08 0 .147.013.2.04h.2a.43.43 0 0 1 .24-.08.89.89 0 0 0 .28-.12c0-.053.014-.093.04-.12a.754.754 0 0 0-.24-.04.754.754 0 0 1-.24-.04.355.355 0 0 1-.04-.16.355.355 0 0 0-.04-.16h-.08c0-.027-.013-.04-.04-.04Zm-1.08 6.68c.054-.24.107-.493.16-.76.08-.24.147-.48.2-.72 0-.027-.053-.093-.16-.2-.026.053-.066.08-.12.08-.053.027-.08.067-.08.12-.053.16-.093.32-.12.48 0 .16-.013.32-.04.48-.026.107-.04.28-.04.52h.2Zm3.64-7.08-.24-.08a.445.445 0 0 0-.2-.04c-.08 0-.16.013-.24.04l-.24.08a.983.983 0 0 0 .08-.36c.027-.107.067-.227.12-.36h-.08c0-.027-.013-.04-.04-.04-.133.187-.28.36-.44.52-.133.16-.186.373-.16.64.027.187-.013.413-.12.68a4.78 4.78 0 0 1-.16.36 1.31 1.31 0 0 1-.16.2 4.87 4.87 0 0 0-.32-.24l-.24-.24c-.053.267-.093.453-.12.56h-.12a1.55 1.55 0 0 0-.08-.2v-.24c-.08.16-.173.32-.28.48-.08.133 0 .28.24.44.027 0 .027.027 0 .08a.355.355 0 0 1-.04.16c-.053.107-.12.2-.2.28-.053.08-.106.173-.16.28h.08a69.6 69.6 0 0 0-.08.76c0 .24-.013.48-.04.72l.12.04a.628.628 0 0 0 .12-.16 1.55 1.55 0 0 0 .08-.2l.6-2.04c.054-.187.12-.267.2-.24.107.027.227.107.36.24-.293-.053-.44 0-.44.16 0 .133-.026.267-.08.4a.556.556 0 0 0-.04.24c.027.08.04.16.04.24a.657.657 0 0 1 .2-.04c.08-.027.174-.053.28-.08a1.55 1.55 0 0 0-.08.2c0 .053-.013.093-.04.12-.106.027-.213.04-.32.04-.106-.027-.16-.013-.16.04-.053.16-.093.32-.12.48 0 .16-.026.333-.08.52 0 .133-.013.24-.04.32a3.42 3.42 0 0 0-.44 1.08c-.053.373-.066.76-.04 1.16v.2c-.213.16-.28.32-.2.48.107.187.12.373.04.56.027.027.067.04.12.04l.24-.24c.08-.053.16-.12.24-.2a5.177 5.177 0 0 0-.28-.68h.44a1.55 1.55 0 0 1-.08-.2l-.08-.24a.503.503 0 0 1 .2-.12c.107 0 .2-.013.28-.04.134-.053.24-.2.32-.44.107-.213.107-.36 0-.44-.213-.187-.306-.36-.28-.52.054-.187.134-.387.24-.6.107-.213.187-.427.24-.64.08-.213.174-.453.28-.72.48-.187.574-.427.28-.72.134-.213.254-.413.36-.6l.32-.64c.054-.053.08-.133.08-.24 0-.107-.013-.173-.04-.2-.16-.133-.226-.24-.2-.32.054-.08.107-.187.16-.32.107.027.254.04.44.04v-.2Zm.08-1.28c.027-.107.054-.2.08-.28.054-.107.067-.2.04-.28a3.66 3.66 0 0 0-.2-.48.716.716 0 0 1 .04-.52l-.08-.16c-.133.213-.253.413-.36.6-.08.187-.173.373-.28.56a.306.306 0 0 0-.12-.04l-.08-.04a2.13 2.13 0 0 0 .04-.48c.027-.133.054-.28.08-.44.054-.187.054-.293 0-.32-.213-.133-.293-.24-.24-.32.08-.107.147-.227.2-.36.027-.053.027-.093 0-.12v-.16c-.026-.027-.053-.04-.08-.04a.306.306 0 0 1-.12-.04 2.528 2.528 0 0 1-.24.56c-.08.16-.093.307-.04.44.08.267.107.533.08.8 0 .24-.08.44-.24.6a2.09 2.09 0 0 0-.32.44c-.08.187-.106.333-.08.44-.186.027-.346.173-.48.44-.106.24-.106.507 0 .8.054-.16.094-.293.12-.4.054.053.08.093.08.12v.12c0 .16.014.28.04.36 0 .027.027.04.08.04.08 0 .134-.013.16-.04.054-.053.08-.107.08-.16 0-.053.014-.107.04-.16a.355.355 0 0 0 .04-.16c0-.053.014-.107.04-.16l.16-.48c.054-.187.12-.36.2-.52.054-.133.107-.24.16-.32.054-.08.107-.173.16-.28.16.107.28.173.36.2.027.027.067.04.12.04l.2-.2c.16.16.28.293.36.4Zm.28-.92a.697.697 0 0 1 .2-.36c.134-.133.094-.28-.12-.44a.64.64 0 0 1-.16.4c-.106.133-.08.267.08.4Zm.52-1.44a1.55 1.55 0 0 1 .08-.2c.054-.08.067-.147.04-.2-.026-.053-.146-.213-.36-.48v-.28a1.55 1.55 0 0 1-.2.08c-.053.027-.066.053-.04.08.054.213.014.387-.12.52-.106.133-.2.28-.28.44a.355.355 0 0 0-.04.16c.027.027.027.067 0 .12l.04.04c.027 0 .054.013.08.04.08-.107.16-.2.24-.28.08-.107.147-.2.2-.28a.628.628 0 0 0 .16.12c.08.027.147.067.2.12Zm.76-1.72h-.28a.355.355 0 0 0-.16-.04c.107-.213.187-.413.24-.6.08-.213.174-.427.28-.64-.266.107-.506.36-.72.76-.213.373-.293.653-.24.84.107 0 .214.013.32.04h.36c0-.027.067-.147.2-.36Zm-4.92-2.56c-.373.48-.746.933-1.12 1.36-.293.373-.586.76-.88 1.16l-.88 1.12c-.266.373-.52.733-.76 1.08-.24.347-.506.693-.8 1.04-.186.24-.333.493-.44.76-.106.267-.213.547-.32.84a2.755 2.755 0 0 1-.64.96c-.266.293-.52.6-.76.92-.32.453-.613.92-.88 1.4-.266.453-.373.987-.32 1.6v.16a4.96 4.96 0 0 0-.6.44 4.96 4.96 0 0 1-.6.44h-.04a1.55 1.55 0 0 1-.2.08l-.16.08h-.12c0 .027-.026.04-.08.04V43c-.373-.053-.64-.28-.8-.68a1.175 1.175 0 0 0-.52-.56c-.4-.293-.68-.64-.84-1.04a10.81 10.81 0 0 1-.4-1.32 9.22 9.22 0 0 1 .08-4c.134-.693.267-1.4.4-2.12.16-.747.347-1.467.56-2.16.214-.773.467-1.533.76-2.28.294-.747.587-1.507.88-2.28l.4-1.04c.134-.347.28-.68.44-1 .214-.48.44-.947.68-1.4.24-.48.494-.947.76-1.4.48-.853.96-1.72 1.44-2.6.48-.88.974-1.747 1.48-2.6.454-.773.92-1.547 1.4-2.32.48-.8.96-1.587 1.44-2.36l1.52-2.56 1.52-2.56c.294-.453.574-.907.84-1.36.267-.453.52-.907.76-1.36.134-.213.294-.333.48-.36l.64-.16c-.053.08-.093.16-.12.24a.39.39 0 0 1-.08.2h.56c.187 0 .374.013.56.04.267 0 .454.107.56.32.107.213.24.387.4.52.134.107.254.24.36.4.107.16.227.267.36.32.4.107.654.333.76.68.107.32.214.653.32 1 .107.32.067.667-.12 1.04a1.31 1.31 0 0 1-.2.16c-.08.053-.146.107-.2.16l-.16.16-.08.16-.24.56c-.053.16-.133.32-.24.48l-.8 1.12c-.266.373-.546.747-.84 1.12l-.48.64-.48.64c-.026.053-.066.08-.12.08-.053-.027-.093-.013-.12.04-.106.053-.24.16-.4.32a.507.507 0 0 0-.12.24c-.026.08-.066.133-.12.16-.186.053-.293.147-.32.28-.026.133-.08.267-.16.4a1.252 1.252 0 0 1-.24.32c-.08.08-.16.173-.24.28a.467.467 0 0 1-.08.12c-.026.027-.04.067-.04.12-.08.533-.36 1-.84 1.4-.293.24-.506.48-.64.72l-.24.56c-.053.187-.186.32-.4.4.027 0 0 .04-.08.12-.053.293-.186.56-.4.8-.213.24-.4.493-.56.76l-.12.12c-.026.053-.026.08 0 .08.134.213.134.373 0 .48-.133.08-.226.147-.28.2a1.627 1.627 0 0 0-.76.88c-.133.373-.306.72-.52 1.04-.293.427-.56.853-.8 1.28-.213.427-.44.867-.68 1.32a.445.445 0 0 0-.04.2c0 .08-.026.147-.08.2-.053.08-.12.16-.2.24a1.31 1.31 0 0 0-.16.2h-.08c-.026-.027-.053-.04-.08-.04.054.16.08.293.08.4-.24.133-.413.267-.52.4-.106.107-.053.307.16.6a.657.657 0 0 0-.2.04h-.16c0 .027-.013.04-.04.04v.44c.027.133.027.267 0 .4a.88.88 0 0 1-.16.36c-.053.08-.106.187-.16.32l-.16.32c-.053.08-.173.107-.36.08-.053 0-.106.04-.16.12a.628.628 0 0 1-.12.16c.027.027.04.053.04.08l.08.08c.16-.107.267-.173.32-.2l.12.04-.4.64c-.106.213-.24.467-.4.76.027.053 0 .253-.08.6-.08.32-.186.667-.32 1.04-.106.373-.226.72-.36 1.04-.133.32-.253.493-.36.52l-.16.48-.08.48-.16.8c-.026.24-.066.493-.12.76a1.431 1.431 0 0 1-.12.36 7.835 7.835 0 0 0-.08.36c-.053.133-.08.28-.08.44 0 .133-.026.267-.08.4v.04c.107-.16.2-.32.28-.48.107-.187.227-.36.36-.52.24-.347.494-.68.76-1 .267-.347.547-.68.84-1a.628.628 0 0 1 .16-.12c.08-.027.12-.067.12-.12a10.27 10.27 0 0 1 .76-1.64c.32-.507.707-.973 1.16-1.4.267-.267.52-.533.76-.8.267-.267.467-.547.6-.84.134-.373.307-.693.52-.96.214-.293.44-.573.68-.84.187-.213.4-.4.64-.56.24-.16.36-.427.36-.8.214 0 .374-.04.48-.12.107-.107.187-.213.24-.32.08-.133.147-.267.2-.4.054-.16.12-.293.2-.4.374-.453.76-.907 1.16-1.36.4-.48.8-.947 1.2-1.4.294-.293.6-.573.92-.84.32-.293.587-.6.8-.92.214-.293.454-.507.72-.64.267-.16.56-.293.88-.4a94.29 94.29 0 0 0-4.36 4.92c-1.36 1.68-2.68 3.4-3.96 5.16l.24.24c.48-.613.96-1.2 1.44-1.76l1.44-1.76.16.08c-.16.24-.32.493-.48.76l-.48.72Zm-8.52.92a1.017 1.017 0 0 0-.24-.24l-.16-.24c.134-.08.254-.133.36-.16.134-.053.12-.187-.04-.4-.026.08-.08.12-.16.12a.657.657 0 0 0-.2.04c-.053 0-.106.027-.16.08-.053.027-.066.107-.04.24.027.133.054.253.08.36.027.107.054.227.08.36h.12l-.32.24c-.106.08-.226.173-.36.28.08.053.16.093.24.12.08 0 .147.027.2.08l-.08.32a1.55 1.55 0 0 1-.08.2c-.133.027-.24.04-.32.04-.08 0-.173.013-.28.04.107.133.2.24.28.32.08.08.16.173.24.28a.628.628 0 0 1 .16-.12.453.453 0 0 0 .16-.16c.107-.293.2-.587.28-.88.08-.32.16-.627.24-.92Zm-.48 8.92c0 .027-.013.04-.04.04v.04-.04c.027 0 .04-.013.04-.04Zm2.56-12.8c.214-.107.36-.187.44-.24a.556.556 0 0 0-.04-.24c-.213.213-.413.293-.6.24a1.826 1.826 0 0 1-.56-.4c.027.133.04.24.04.32 0 .08.014.16.04.24a3.106 3.106 0 0 0-.4-.16l-.16.32-.16.24v.08c.027 0 .04.013.04.04a.43.43 0 0 1 .24-.08c.08-.027.16-.067.24-.12a.613.613 0 0 1-.28.44 1.567 1.567 0 0 1-.32.12.43.43 0 0 0-.24.08l.28.28c.08.053.147.107.2.16a2.103 2.103 0 0 1-.48.12c0 .133.027.307.08.52l-.4.2c.08.053.147.107.2.16a.628.628 0 0 1 .16.12l-.24.08a.657.657 0 0 0-.2.04c.08.107.16.2.24.28l.24.24c.16-.293.294-.6.4-.92.107-.32.347-.56.72-.72l-.12-.12a.467.467 0 0 1-.08-.12c-.053-.107-.066-.2-.04-.28a.262.262 0 0 1 .12-.12c.054-.053.094-.067.12-.04.16.08.267.08.32 0 .08-.08.147-.16.2-.24l-.24-.16-.16-.16a.271.271 0 0 1 .2-.08.503.503 0 0 0 .2-.12Zm-.64-1.04c.027.053.04.12.04.2 0 .053.027.107.08.16a.628.628 0 0 0 .16.12l.16.08c.107-.08.2-.147.28-.2l.32-.24c.107-.213.08-.387-.08-.52a1.219 1.219 0 0 0-.4-.28c-.133-.027-.213-.013-.24.04a1.238 1.238 0 0 0-.08.24c0 .08-.013.16-.04.24-.026.08-.093.133-.2.16Zm1.48-1.28.16-.88c.08-.293.147-.587.2-.88a.445.445 0 0 1-.2-.04 1.55 1.55 0 0 0-.08.2c0 .08-.013.147-.04.2-.16-.027-.28-.013-.36.04-.053.027-.093.093-.12.2v.28c0 .107-.026.187-.08.24-.026.027.014.12.12.28.107.133.187.267.24.4h.08c.027-.027.054-.04.08-.04Zm.28.52c.134-.187.254-.373.36-.56.107-.187.227-.387.36-.6-.56.133-.8.52-.72 1.16Zm1-2.92a.807.807 0 0 0 .04-.44c0-.187.014-.36.04-.52l-.16-.08-.4.48c-.106.133-.226.28-.36.44a.271.271 0 0 0-.08.2.43.43 0 0 1-.08.24h.44c-.053.16-.093.32-.12.48 0 .133-.026.28-.08.44h.16l.12-.48c.294.027.427-.053.4-.24 0-.187.027-.36.08-.52Zm1.36-1.16a.306.306 0 0 0-.04-.12l-.08-.16c-.16.293-.32.56-.48.8l-.4.64c.187-.053.387-.2.6-.44.214-.267.347-.507.4-.72Zm-.16-5.16a6.605 6.605 0 0 0-.36.56c-.106.187-.24.413-.4.68l.44-.08c.08-.187.147-.36.2-.52.08-.187.147-.373.2-.56l-.08-.08Zm-7.56 18.64c.054-.133.094-.267.12-.4.027-.16.067-.307.12-.44a.713.713 0 0 1 .2-.2l.32-.16a2 2 0 0 0-.28-.2 1.31 1.31 0 0 0-.2-.16c.054-.133.107-.24.16-.32l.16-.24c.054-.16.08-.32.08-.48.027-.16.067-.32.12-.48.134-.347.254-.68.36-1l.4-1.04c.16-.427.32-.84.48-1.24.16-.427.334-.853.52-1.28.107-.24.214-.467.32-.68.107-.24.227-.467.36-.68.107-.213.214-.413.32-.6.107-.187.214-.387.32-.6.16-.293.307-.573.44-.84l.48-.88a1.31 1.31 0 0 1 .16-.2c.08-.08.12-.16.12-.24 0-.293.067-.533.2-.72a9.14 9.14 0 0 0 .44-.64c.08-.16.187-.307.32-.44.16-.133.28-.28.36-.44.134-.213.24-.44.32-.68a2.95 2.95 0 0 1 .32-.72c.214-.373.427-.733.64-1.08l.64-1.04c.054-.107.094-.2.12-.28.027-.107.067-.213.12-.32-.293-.053-.493-.013-.6.12-.08.107-.133.267-.16.48a1.46 1.46 0 0 1-.28.76 5.93 5.93 0 0 0-.44.68c-.08.133-.173.173-.28.12-.213-.053-.346-.013-.4.12a2.286 2.286 0 0 1-.12.4c.214-.053.36-.107.44-.16-.053.373-.173.6-.36.68-.186.08-.44.093-.76.04a.89.89 0 0 0-.12.28c-.026.08-.066.16-.12.24l.12.08c.107-.053.214-.093.32-.12a4.78 4.78 0 0 1 .36-.16l.04.04c-.053.08-.12.173-.2.28-.08.08-.146.16-.2.24a1.973 1.973 0 0 0-.2-.12.628.628 0 0 1-.16-.12l-.16.08c.08.107.187.293.32.56a1.238 1.238 0 0 1-.24.08c-.08 0-.16.013-.24.04a.89.89 0 0 1-.28.12c-.08 0-.133.027-.16.08a3.223 3.223 0 0 1-.56 1.08l-.4.64c-.106.187-.213.387-.32.6-.08.187-.146.373-.2.56l-.16.48.08.16c.16-.053.267-.08.32-.08a.628.628 0 0 1 .12.16.507.507 0 0 1-.24.12.24.24 0 0 0-.16.16 3.123 3.123 0 0 0-.24.64c-.053.187-.12.387-.2.6a1.252 1.252 0 0 1-.24.32c-.08.08-.16.173-.24.28l-.12-.12.32-.4c.107-.133.2-.267.28-.4.027-.053.027-.12 0-.2v-.2a.628.628 0 0 1-.16.12c-.053 0-.093.027-.12.08-.106.16-.2.32-.28.48-.053.16-.12.32-.2.48l-.12.24c-.053.08-.066.147-.04.2 0 .053.04.093.12.12a.89.89 0 0 1 .28.12l-.24.4c-.053.133-.12.28-.2.44a.507.507 0 0 0-.24-.12 3.09 3.09 0 0 1-.36-.16v1.48l-.24.08c-.08.027-.173.053-.28.08v.08c.027 0 .04.013.04.04l.48.12a4.78 4.78 0 0 1-.16.36c-.026.08-.066.173-.12.28-.293.027-.48.093-.56.2-.08.08-.16.36-.24.84l.32-.32c.08-.107.187-.227.32-.36-.053.24-.106.453-.16.64-.026.187-.066.36-.12.52a3 3 0 0 0-.32.28c-.08.08-.173.16-.28.24l.24.36c-.106.053-.2.093-.28.12a.923.923 0 0 0-.32.08c.107.08.187.16.24.24.08.053.147.107.2.16a.503.503 0 0 0-.12.2v.2c0 .08-.026.147-.08.2-.026.053-.093.093-.2.12a.386.386 0 0 0-.2.16c-.053.053-.013.133.12.24.107.08.147.16.12.24 0 .08-.08.133-.24.16-.106 0-.186.067-.24.2-.053.08-.106.227-.16.44-.16.213-.12.333.12.36.267.027.307.16.12.4a.271.271 0 0 0-.08.2 5.976 5.976 0 0 0-.12.6c-.026.187-.053.387-.08.6 0 .16.014.32.04.48.027.16.054.333.08.52h.12c.027-.187.027-.36 0-.52 0-.187.027-.36.08-.52l.4-1.36.4-1.36Zm.6 1a.17.17 0 0 0 0-.16c-.026-.053-.026-.093 0-.12.214-.213.334-.453.36-.72.027-.293.094-.573.2-.84a1.07 1.07 0 0 0 .08-.4l.08-.4a1.313 1.313 0 0 0-.32-.04 2.77 2.77 0 0 0-.32-.08c.054.133.12.267.2.4.08.133.094.253.04.36a2.61 2.61 0 0 0-.28.76 1.264 1.264 0 0 1-.32.72c-.053.053-.08.147-.08.28v.32c0 .027.067.067.2.12l.08-.08c.054-.027.08-.067.08-.12Zm3.72-12.96c-.106.187-.2.44-.28.76a.703.703 0 0 0-.2-.08c.054-.133.094-.267.12-.4l.16-.4a.923.923 0 0 0 .2.12Zm36.161 2.12v.04-.04Zm.56 16.52c.054.293.16.533.32.72.187.187.36.347.52.48.16.107.28.2.36.28.08.053.04.12-.12.2a.586.586 0 0 0-.36.12c-.24.16-.48.2-.72.12l-.64-.24c-.213-.053-.373-.147-.48-.28a3.733 3.733 0 0 1-.28-.4 2.037 2.037 0 0 0-.48-.48 1.752 1.752 0 0 1-.4-.48c-.346-.667-.64-1.4-.88-2.2-.293-.907-.36-1.8-.2-2.68.16-.88.387-1.747.68-2.6.294-.933.614-1.84.96-2.72.347-.907.72-1.787 1.12-2.64.214-.427.427-.84.64-1.24l.64-1.28v-.04c.027-.027.04-.067.04-.12h-.16l-.8.8c-.24.24-.48.493-.72.76-.213.213-.4.427-.56.64-.16.213-.346.427-.56.64-.24.267-.493.533-.76.8-.24.24-.48.493-.72.76l-.64.72c-.186.213-.386.44-.6.68-.08.133-.16.253-.24.36a3 3 0 0 1-.28.32.271.271 0 0 1-.2.08h-.16a2.844 2.844 0 0 0-.12.36c0 .08-.026.147-.08.2-.293.373-.6.747-.92 1.12-.293.373-.6.747-.92 1.12l-.04.04c-.053.347-.186.64-.4.88l-.56.72c-.213.293-.44.56-.68.8-.213.24-.426.493-.64.76-.186.213-.36.453-.52.72-.133.24-.306.453-.52.64-.213.133-.36.32-.44.56-.053.213-.2.36-.44.44-.053 0-.106.027-.16.08-.026.027-.026.067 0 .12.054.187.027.32-.08.4-.106.08-.226.187-.36.32-.346.293-.666.68-.96 1.16-.24.32-.546.493-.92.52-.373.027-.706-.107-1-.4a4.083 4.083 0 0 1-.48-.48 1.7 1.7 0 0 1-.2-.68c0-.027-.026-.067-.08-.12a1.492 1.492 0 0 1-.68-.6c-.16-.293-.306-.587-.44-.88l-.16-.4a3.713 3.713 0 0 1-.12-.44 8.321 8.321 0 0 1 .16-3.96c.16-.64.334-1.267.52-1.88l.64-1.84c.027-.08.054-.147.08-.2a.624.624 0 0 0 .12-.16c.054-.133.094-.253.12-.36.027-.107.067-.227.12-.36.08-.213.174-.427.28-.64.107-.24.214-.467.32-.68l.24-.56.24-.56c.16-.293.307-.573.44-.84l.48-.88c.294-.507.574-1 .84-1.48.267-.507.547-1.013.84-1.52a35.47 35.47 0 0 1 1.84-2.76c.374-.533.76-1.067 1.16-1.6.4-.533.827-1.067 1.28-1.6.294-.347.6-.667.92-.96.347-.32.68-.627 1-.92a4.8 4.8 0 0 1 2.04.84c.587.427 1.16.867 1.72 1.32l.88.72c.294.24.587.493.88.76.134.08.24.173.32.28l.28.28.96.88c.347.293.68.587 1 .88.054.053.12.107.2.16.08.053.174.107.28.16a1.59 1.59 0 0 0-.32.12v.12c.134.08.227.093.28.04.187-.107.36-.2.52-.28.16-.107.334-.213.52-.32.107-.107.2-.133.28-.08.16.053.347.093.56.12.214 0 .347.147.4.44.027.053.094.093.2.12.107.027.2.067.28.12.08.053.147.093.2.12.08.027.16.067.24.12.054.027.094.04.12.04.054-.027.107-.013.16.04.187.213.374.413.56.6.187.187.36.387.52.6.134.213.16.493.08.84-.053.347-.186.587-.4.72-.08.08-.12.133-.12.16-.053.08-.093.16-.12.24 0 .08-.026.147-.08.2-.373.4-.666.84-.88 1.32a1.204 1.204 0 0 1-.28.4 4.996 4.996 0 0 0-.36.4l-.4.64a7.934 7.934 0 0 0-.36.64c-.213.4-.426.813-.64 1.24-.186.4-.44.773-.76 1.12-.133.133-.24.293-.32.48-.08.16-.16.333-.24.52-.186.347-.333.68-.44 1l-.16.56c-.026.16-.08.32-.16.48-.053.133-.12.267-.2.4-.08.107-.093.24-.04.4l-.04.08c-.293.133-.426.333-.4.6.027.24 0 .467-.08.68-.053.133-.133.28-.24.44-.08.133-.146.28-.2.44l-.24 1.2c-.053.373-.093.76-.12 1.16v.64c.027.187.054.36.08.52Zm-16.56-4.4c-.186-.08-.293-.16-.32-.24a.652.652 0 0 1 0-.32l.16-.32a.45.45 0 0 0 .04-.32c-.453.32-.573.68-.36 1.08.027.053.08.093.16.12.08.027.147.067.2.12l.12-.12Zm.2-2.16c.08-.16.147-.32.2-.48l.24-.56-.24.16a.503.503 0 0 0-.2.12c-.186.32-.333.627-.44.92a.493.493 0 0 0-.08.28c.027.107.04.2.04.28.027.027.08.04.16.04.054-.133.107-.253.16-.36l.16-.4Zm.8-1.84c.054-.107.04-.2-.04-.28a.27.27 0 0 0-.24-.12c-.133.08-.2.173-.2.28-.026.08.014.173.12.28a9.01 9.01 0 0 1-.4.28c.054.08.12.147.2.2.08.027.147.067.2.12.054-.133.107-.253.16-.36.08-.133.147-.267.2-.4Zm.12-.52c.054-.053.08-.107.08-.16 0-.053.027-.107.08-.16.054-.08.094-.16.12-.24a.89.89 0 0 1 .12-.28c.134-.213.267-.4.4-.56.134-.187.254-.387.36-.6.134-.373.267-.733.4-1.08a5.75 5.75 0 0 1 .52-1.08c.054-.053.067-.107.04-.16 0-.08.027-.147.08-.2.214-.373.427-.707.64-1 .054-.107.094-.2.12-.28l.16-.32c-.053-.053-.08-.093-.08-.12a.627.627 0 0 1-.16.12c-.053 0-.106.027-.16.08-.186.267-.36.533-.52.8-.16.24-.333.507-.52.8a.356.356 0 0 0-.04.16c0 .027-.013.053-.04.08-.293.187-.48.413-.56.68l-.16.8a.308.308 0 0 0-.04.12c0 .027-.013.053-.04.08a2.88 2.88 0 0 0-.36.44c-.106.133-.133.307-.08.52.08.08.067.12-.04.12-.24.08-.36.227-.36.44a.703.703 0 0 1-.2.52c-.053.027-.066.093-.04.2.027.08.067.16.12.24 0 .027.027.053.08.08.054 0 .08-.013.08-.04Zm2.64-4.28c.24-.16.36-.253.36-.28.027-.053-.04-.133-.2-.24l-.08.24a3.89 3.89 0 0 0-.08.28Zm-.32 2.96c.027-.027.027-.067 0-.12l-.08-.16a.463.463 0 0 1-.12.08c-.026 0-.053.013-.08.04-.133.16-.226.307-.28.44v.08c.027 0 .04.013.04.04.187-.107.36-.24.52-.4Zm-2 3.88c.027.027.067.04.12.04.054-.133.094-.253.12-.36a4.74 4.74 0 0 0 .16-.36h-.08c-.026-.027-.066-.04-.12-.04a2.844 2.844 0 0 0-.12.36.981.981 0 0 1-.08.36Zm6.64-.96c.267-.133.467-.227.6-.28-.133-.133-.24-.187-.32-.16-.053.027-.146.173-.28.44Zm.6-.48.24-.36c0-.053-.026-.093-.08-.12l-.08-.08a1.143 1.143 0 0 0-.2.24c-.026.027.014.133.12.32Zm5.68-5.24c-.026-.027-.04-.053-.04-.08 0-.027-.013-.053-.04-.08v-.08l-.24.16c-.08.027-.16.067-.24.12a.7.7 0 0 1 .08.2l.48-.24Zm1.44-2.44c.56-.533 1.12-1.08 1.68-1.64.56-.56 1.12-1.107 1.68-1.64-.053-.053-.08-.093-.08-.12a39.39 39.39 0 0 0-1.08.88c-.346.293-.706.587-1.08.88l-.4.4a.702.702 0 0 1-.52.2c.427-.373.84-.733 1.24-1.08.427-.373.867-.747 1.32-1.12a6.08 6.08 0 0 0-.32-.12 1.012 1.012 0 0 1-.24-.12l-.4-.16a1.537 1.537 0 0 0-.36-.2 2.149 2.149 0 0 1-.32-.2.932.932 0 0 0-.32-.2.887.887 0 0 0-.28-.12 1.012 1.012 0 0 1-.24-.12c-.32-.213-.64-.44-.96-.68a7.758 7.758 0 0 0-.92-.72c-.16-.107-.293-.133-.4-.08-.32.16-.6.36-.84.6-.373.373-.733.76-1.08 1.16-.346.4-.706.8-1.08 1.2a2.99 2.99 0 0 1-.32.28c-.106.08-.213.187-.32.32a2.048 2.048 0 0 1-.48.48c-.186.107-.333.28-.44.52-.08.213-.2.413-.36.6a4.97 4.97 0 0 0-.44.6l-.08.04c-.133.213-.266.413-.4.6-.106.16-.226.333-.36.52-.053.08-.093.16-.12.24-.026.08-.066.16-.12.24-.24.4-.493.8-.76 1.2a8.944 8.944 0 0 0-.72 1.2c-.266.453-.506.907-.72 1.36-.186.453-.386.92-.6 1.4a50.17 50.17 0 0 0-.76 1.76c-.24.56-.493 1.133-.76 1.72l-.16.48c-.053.16-.186.253-.4.28 0 .08.014.16.04.24.027.053.014.107-.04.16-.186.213-.306.44-.36.68-.026.24-.053.493-.08.76a.446.446 0 0 0-.04.2.355.355 0 0 1-.04.16c-.106.293-.173.6-.2.92 0 .32.027.627.08.92 0 .053.054.187.16.4a86.166 86.166 0 0 1 5.84-7.48 174.084 174.084 0 0 1 6.36-6.96c-.133.213-.28.4-.44.56-.133.16-.266.333-.4.52-.24.267-.48.52-.72.76-.213.24-.426.493-.64.76-.16.16-.28.293-.36.4-.053.053-.106.12-.16.2l-.16.24a.463.463 0 0 1-.12.08c-.053.027-.08.053-.08.08.054.187.04.293-.04.32-.08.027-.186.053-.32.08a.933.933 0 0 0-.24.16l-.48.56c-.133.16-.28.347-.44.56a.356.356 0 0 0-.04.16v.16l-.24.16-.24.16a.47.47 0 0 0-.08.12c0 .053.014.093.04.12l.08.08c.054.027.094.027.12 0 .16 0 .28-.067.36-.2.16-.16.307-.32.44-.48l.48-.56c.054-.08.12-.16.2-.24.08-.08.134-.16.16-.24.027-.24.147-.333.36-.28.134 0 .24-.093.32-.28a2.33 2.33 0 0 1 .48-.76l.64-.64.64-.64a.593.593 0 0 0 .16-.28l.16-.32a.503.503 0 0 1 .2-.12.503.503 0 0 0 .2-.12c.107-.08.2-.173.28-.28l.24-.32c.08-.107.16-.2.24-.28.107-.107.187-.213.24-.32.08-.133.2-.24.36-.32.187-.107.36-.133.52-.08.267.16.494.08.68-.24a2.04 2.04 0 0 0-.4.04c-.106 0-.226.013-.36.04 0-.027-.013-.053-.04-.08v-.08Zm19.6-1.64c.214.453.147.813-.2 1.08a.723.723 0 0 0-.2.2c-.053.08-.106.187-.16.32a5.054 5.054 0 0 0-.4.36c-.133.107-.266.24-.4.4.107.133.16.253.16.36 0 .107-.106.2-.32.28a.59.59 0 0 0-.2.28c-.026.133-.08.293-.16.48.347-.053.534-.093.56-.12.214-.293.414-.587.6-.88.187-.32.387-.627.6-.92l.48-.64c.16-.213.334-.427.52-.64a.807.807 0 0 1 .24-.28c.107-.107.16-.213.16-.32 0-.293.094-.493.28-.6a1.79 1.79 0 0 0 .52-.48c.134-.213.267-.4.4-.56.134-.187.267-.387.4-.6.16-.213.307-.413.44-.6.134-.213.28-.413.44-.6.454-.48.907-.947 1.36-1.4.454-.48.907-.947 1.36-1.4.08-.107.16-.2.24-.28l.32-.24.08.08c-.373.373-.733.747-1.08 1.12-.346.373-.706.747-1.08 1.12 0 .027.027.067.08.12.214-.053.36-.12.44-.2.32-.293.627-.6.92-.92l.92-.92c.294-.24.347-.493.16-.76.134-.16.254-.32.36-.48l.4-.48c.054-.053.067-.107.04-.16 0-.053.014-.107.04-.16a.796.796 0 0 0-.36.08c-.24.187-.48.36-.72.52-.213.16-.453.307-.72.44.027-.027.04-.053.04-.08l.08-.08c.4-.32.787-.627 1.16-.92.4-.32.787-.653 1.16-1a.508.508 0 0 0 .2-.32c.054-.133.12-.253.2-.36.107-.133.214-.24.32-.32.107-.107.227-.213.36-.32a.358.358 0 0 1 .16-.04c.08 0 .12.013.12.04.107.24.254.333.44.28.187-.08.347-.093.48-.04.187.08.36.173.52.28.16.08.334.173.52.28.107.053.2.12.28.2.107.08.227.173.36.28 0 .24.187.467.56.68.134.053.227.173.28.36.054.16.12.32.2.48.054.133.094.28.12.44.054.133.054.293 0 .48-.053.213-.093.44-.12.68 0 .213-.026.427-.08.64a.89.89 0 0 1-.16.32l-.16.32-1.12 1.6-1.12 1.6a.884.884 0 0 0-.16.36 1.49 1.49 0 0 1-.12.32c-.08.213-.16.413-.24.6a1.07 1.07 0 0 1-.44.48c-.106.08-.186.213-.24.4-.026.16-.08.307-.16.44-.08.213-.173.413-.28.6a9.45 9.45 0 0 0-.32.52 1.78 1.78 0 0 0-.28.6c-.026.187-.08.373-.16.56-.16.293-.213.613-.16.96.054.32-.026.64-.24.96-.106.16-.146.373-.12.64.054.267.067.533.04.8 0 .08-.013.173-.04.28v.28c.107.213.2.44.28.68.107.213.214.44.32.68-.453.32-.906.32-1.36 0-1.013-.693-1.72-1.533-2.12-2.52-.4-1.013-.6-2.107-.6-3.28.027-1.893.427-3.747 1.2-5.56a2.91 2.91 0 0 0 .24-.68l.24-.72-.12-.12a.919.919 0 0 1-.24.16c-.08.053-.146.107-.2.16-.293.32-.573.64-.84.96-.266.32-.546.653-.84 1a4.542 4.542 0 0 0-.36.6c-.106.187-.226.387-.36.6-.08.133-.173.253-.28.36-.08.107-.173.227-.28.36-.24.347-.493.693-.76 1.04-.24.32-.466.667-.68 1.04-.56.853-1.106 1.72-1.64 2.6-.533.853-1.066 1.72-1.6 2.6-.453.773-.88 1.56-1.28 2.36-.4.8-.8 1.587-1.2 2.36-.346.64-.666 1.293-.96 1.96-.293.64-.613 1.28-.96 1.92-.16.32-.346.627-.56.92a5.358 5.358 0 0 0-.48.84c-.16.347-.36.653-.6.92-.213.24-.426.507-.64.8-.373.613-.88.707-1.52.28a1.84 1.84 0 0 0-.52-.24c-.16-.053-.306-.187-.44-.4a5.205 5.205 0 0 1-.72-1.44 7.763 7.763 0 0 1-.32-1.56 15.294 15.294 0 0 1 .24-4.12c.374-1.893.894-3.72 1.56-5.48l.64-1.68c.24-.587.48-1.16.72-1.72.267-.613.534-1.213.8-1.8.267-.587.534-1.187.8-1.8.134-.267.254-.52.36-.76.134-.24.24-.493.32-.76a4.6 4.6 0 0 1 .6-1.32c.294-.427.534-.867.72-1.32.187-.48.4-.933.64-1.36.24-.453.467-.907.68-1.36.214-.587.64-.96 1.28-1.12.054.16.12.267.2.32.107.053.2.08.28.08a1.32 1.32 0 0 1 .32-.04.64.64 0 0 1 .32 0v.36c.294-.107.52-.093.68.04.187.107.374.253.56.44l.64.64c.24.213.427.48.56.8.027.053.054.12.08.2.027.08.04.147.04.2-.106.4-.186.813-.24 1.24a2.06 2.06 0 0 1-.56 1.16l-.72.88a3.322 3.322 0 0 0-.52.96.472.472 0 0 1-.24.32.738.738 0 0 0-.24.32c-.16.293-.32.613-.48.96-.133.32-.28.627-.44.92-.08.16-.173.32-.28.48a2.245 2.245 0 0 1-.36.36c-.373.24-.653.533-.84.88-.16.347-.306.707-.44 1.08-.08.24-.186.467-.32.68-.106.187-.306.307-.6.36.16.293.187.573.08.84-.106.24-.253.467-.44.68a6.62 6.62 0 0 0-.32.44c-.106.133-.133.32-.08.56.027.107-.026.227-.16.36a1.086 1.086 0 0 0-.24.36c-.16.293-.333.6-.52.92-.186.293-.32.587-.4.88-.053.293-.16.587-.32.88-.133.267-.133.56 0 .88.054.08.027.187-.08.32a1.632 1.632 0 0 0-.24.4c-.08.16-.146.333-.2.52-.053.187-.12.4-.2.64.08-.053.147-.093.2-.12a.5.5 0 0 0 .2-.12l2.88-5.28.96-1.68c.32-.56.654-1.12 1-1.68.24-.4.494-.8.76-1.2.267-.4.534-.813.8-1.24.134-.213.267-.44.4-.68.16-.24.32-.467.48-.68.054-.107.12-.2.2-.28.08-.08.174-.187.28-.32Zm-1.72 4.32c-.026-.027-.053-.04-.08-.04l-.08-.08a.5.5 0 0 1-.2.12.508.508 0 0 0-.2.12.51.51 0 0 0-.12.2c0 .08-.026.147-.08.2.08 0 .16.013.24.04.107 0 .187-.027.24-.08a.487.487 0 0 0 .12-.2c.054-.107.107-.2.16-.28Zm-7.52 5.88c.054.027.08.053.08.08.027 0 .067.013.12.04.054-.107.094-.2.12-.28.054-.107.107-.2.16-.28-.026 0-.053-.013-.08-.04-.026-.027-.053-.04-.08-.04l-.04-.04c-.08.107-.173.293-.28.56ZM126.953 17a34.8 34.8 0 0 1-1.04 1c-.346.32-.68.667-1 1.04-.16.16-.306.333-.44.52-.106.187-.226.387-.36.6a.494.494 0 0 0-.08.12c0 .027-.026.053-.08.08-.506.24-.88.587-1.12 1.04-.24.453-.52.88-.84 1.28l-.32.4c-.106.133-.146.307-.12.52 0 .053-.066.093-.2.12-.133.027-.266.04-.4.04a35.427 35.427 0 0 1 5.84-6.92c.027.08.08.133.16.16Zm21.277 7.44v.04-.04Zm.56 16.52c.054.293.16.533.32.72.187.187.36.347.52.48.16.107.28.2.36.28.08.053.04.12-.12.2a.586.586 0 0 0-.36.12c-.24.16-.48.2-.72.12l-.64-.24c-.213-.053-.373-.147-.48-.28a3.733 3.733 0 0 1-.28-.4 2.037 2.037 0 0 0-.48-.48 1.751 1.751 0 0 1-.4-.48 12.67 12.67 0 0 1-.88-2.2c-.293-.907-.36-1.8-.2-2.68.16-.88.387-1.747.68-2.6.294-.933.614-1.84.96-2.72.347-.907.72-1.787 1.12-2.64.214-.427.427-.84.64-1.24l.64-1.28v-.04c.027-.027.04-.067.04-.12h-.16l-.8.8c-.24.24-.48.493-.72.76-.213.213-.4.427-.56.64-.16.213-.346.427-.56.64-.24.267-.493.533-.76.8-.24.24-.48.493-.72.76l-.64.72c-.186.213-.386.44-.6.68-.08.133-.16.253-.24.36-.08.107-.173.213-.28.32a.271.271 0 0 1-.2.08h-.16a2.943 2.943 0 0 0-.12.36c0 .08-.026.147-.08.2-.293.373-.6.747-.92 1.12-.293.373-.6.747-.92 1.12l-.04.04c-.053.347-.186.64-.4.88l-.56.72c-.213.293-.44.56-.68.8-.213.24-.426.493-.64.76a5.03 5.03 0 0 0-.52.72c-.133.24-.306.453-.52.64-.213.133-.36.32-.44.56-.053.213-.2.36-.44.44-.053 0-.106.027-.16.08-.026.027-.026.067 0 .12.054.187.027.32-.08.4-.106.08-.226.187-.36.32-.346.293-.666.68-.96 1.16-.24.32-.546.493-.92.52-.373.027-.706-.107-1-.4a4.177 4.177 0 0 1-.48-.48 1.715 1.715 0 0 1-.2-.68c0-.027-.026-.067-.08-.12a1.493 1.493 0 0 1-.68-.6c-.16-.293-.306-.587-.44-.88l-.16-.4a3.832 3.832 0 0 1-.12-.44 8.333 8.333 0 0 1 .16-3.96c.16-.64.334-1.267.52-1.88l.64-1.84a1.71 1.71 0 0 1 .08-.2.597.597 0 0 0 .12-.16c.054-.133.094-.253.12-.36.027-.107.067-.227.12-.36.08-.213.174-.427.28-.64.107-.24.214-.467.32-.68l.24-.56.24-.56c.16-.293.307-.573.44-.84l.48-.88c.294-.507.574-1 .84-1.48.267-.507.547-1.013.84-1.52a35.642 35.642 0 0 1 1.84-2.76c.374-.533.76-1.067 1.16-1.6.4-.533.827-1.067 1.28-1.6.294-.347.6-.667.92-.96.347-.32.68-.627 1-.92a4.794 4.794 0 0 1 2.04.84c.587.427 1.16.867 1.72 1.32l.88.72c.294.24.587.493.88.76.134.08.24.173.32.28l.28.28.96.88c.347.293.68.587 1 .88.054.053.12.107.2.16.08.053.174.107.28.16a1.59 1.59 0 0 0-.32.12v.12c.134.08.227.093.28.04.187-.107.36-.2.52-.28.16-.107.334-.213.52-.32.107-.107.2-.133.28-.08.16.053.347.093.56.12.214 0 .347.147.4.44.027.053.094.093.2.12.107.027.2.067.28.12.08.053.147.093.2.12.08.027.16.067.24.12.054.027.094.04.12.04.054-.027.107-.013.16.04.187.213.374.413.56.6.187.187.36.387.52.6.134.213.16.493.08.84-.053.347-.186.587-.4.72-.08.08-.12.133-.12.16-.053.08-.093.16-.12.24 0 .08-.026.147-.08.2-.373.4-.666.84-.88 1.32a1.204 1.204 0 0 1-.28.4 4.996 4.996 0 0 0-.36.4l-.4.64a7.934 7.934 0 0 0-.36.64c-.213.4-.426.813-.64 1.24-.186.4-.44.773-.76 1.12-.133.133-.24.293-.32.48-.08.16-.16.333-.24.52-.186.347-.333.68-.44 1l-.16.56c-.026.16-.08.32-.16.48-.053.133-.12.267-.2.4-.08.107-.093.24-.04.4l-.04.08c-.293.133-.426.333-.4.6.027.24 0 .467-.08.68-.053.133-.133.28-.24.44-.08.133-.146.28-.2.44l-.24 1.2c-.053.373-.093.76-.12 1.16v.64c.027.187.054.36.08.52Zm-16.56-4.4c-.186-.08-.293-.16-.32-.24a.666.666 0 0 1 0-.32l.16-.32a.446.446 0 0 0 .04-.32c-.453.32-.573.68-.36 1.08.027.053.08.093.16.12a.5.5 0 0 1 .2.12l.12-.12Zm.2-2.16c.08-.16.147-.32.2-.48l.24-.56-.24.16a.508.508 0 0 0-.2.12c-.186.32-.333.627-.44.92a.495.495 0 0 0-.08.28c.027.107.04.2.04.28.027.027.08.04.16.04.054-.133.107-.253.16-.36l.16-.4Zm.8-1.84c.054-.107.04-.2-.04-.28a.268.268 0 0 0-.24-.12c-.133.08-.2.173-.2.28-.026.08.014.173.12.28-.106.08-.24.173-.4.28.054.08.12.147.2.2a.5.5 0 0 1 .2.12c.054-.133.107-.253.16-.36.08-.133.147-.267.2-.4Zm.12-.52c.054-.053.08-.107.08-.16 0-.053.027-.107.08-.16a.962.962 0 0 0 .12-.24.904.904 0 0 1 .12-.28c.134-.213.267-.4.4-.56.134-.187.254-.387.36-.6.134-.373.267-.733.4-1.08.134-.373.307-.733.52-1.08.054-.053.067-.107.04-.16 0-.08.027-.147.08-.2a11.1 11.1 0 0 1 .64-1c.054-.107.094-.2.12-.28l.16-.32c-.053-.053-.08-.093-.08-.12a.612.612 0 0 1-.16.12c-.053 0-.106.027-.16.08-.186.267-.36.533-.52.8-.16.24-.333.507-.52.8a.364.364 0 0 0-.04.16c0 .027-.013.053-.04.08-.293.187-.48.413-.56.68l-.16.8a.319.319 0 0 0-.04.12c0 .027-.013.053-.04.08-.133.133-.253.28-.36.44-.106.133-.133.307-.08.52.08.08.067.12-.04.12-.24.08-.36.227-.36.44a.7.7 0 0 1-.2.52c-.053.027-.066.093-.04.2.027.08.067.16.12.24 0 .027.027.053.08.08.054 0 .08-.013.08-.04Zm2.64-4.28c.24-.16.36-.253.36-.28.027-.053-.04-.133-.2-.24l-.08.24c-.026.08-.053.173-.08.28Zm-.32 2.96c.027-.027.027-.067 0-.12a11.926 11.926 0 0 0-.08-.16.443.443 0 0 1-.12.08c-.026 0-.053.013-.08.04-.133.16-.226.307-.28.44v.08c.027 0 .04.013.04.04.187-.107.36-.24.52-.4Zm-2 3.88c.027.027.067.04.12.04.054-.133.094-.253.12-.36.054-.107.107-.227.16-.36h-.08c-.026-.027-.066-.04-.12-.04a2.943 2.943 0 0 0-.12.36.969.969 0 0 1-.08.36Zm6.64-.96a8.95 8.95 0 0 1 .6-.28c-.133-.133-.24-.187-.32-.16-.053.027-.146.173-.28.44Zm.6-.48.24-.36c0-.053-.026-.093-.08-.12l-.08-.08a1.174 1.174 0 0 0-.2.24c-.026.027.014.133.12.32Zm5.68-5.24c-.026-.027-.04-.053-.04-.08 0-.027-.013-.053-.04-.08v-.08l-.24.16c-.08.027-.16.067-.24.12a.68.68 0 0 1 .08.2l.48-.24Zm1.44-2.44c.56-.533 1.12-1.08 1.68-1.64.56-.56 1.12-1.107 1.68-1.64-.053-.053-.08-.093-.08-.12a39.39 39.39 0 0 0-1.08.88c-.346.293-.706.587-1.08.88l-.4.4a.702.702 0 0 1-.52.2c.427-.373.84-.733 1.24-1.08.427-.373.867-.747 1.32-1.12a6.08 6.08 0 0 0-.32-.12 1.012 1.012 0 0 1-.24-.12l-.4-.16a1.537 1.537 0 0 0-.36-.2 2.149 2.149 0 0 1-.32-.2.932.932 0 0 0-.32-.2.887.887 0 0 0-.28-.12 1.012 1.012 0 0 1-.24-.12c-.32-.213-.64-.44-.96-.68a7.762 7.762 0 0 0-.92-.72c-.16-.107-.293-.133-.4-.08-.32.16-.6.36-.84.6-.373.373-.733.76-1.08 1.16-.346.4-.706.8-1.08 1.2-.106.107-.213.2-.32.28-.106.08-.213.187-.32.32a2.037 2.037 0 0 1-.48.48c-.186.107-.333.28-.44.52-.08.213-.2.413-.36.6-.16.187-.306.387-.44.6l-.08.04c-.133.213-.266.413-.4.6-.106.16-.226.333-.36.52-.053.08-.093.16-.12.24a.962.962 0 0 1-.12.24c-.24.4-.493.8-.76 1.2a9.071 9.071 0 0 0-.72 1.2c-.266.453-.506.907-.72 1.36-.186.453-.386.92-.6 1.4-.266.587-.52 1.173-.76 1.76a84.75 84.75 0 0 1-.76 1.72l-.16.48c-.053.16-.186.253-.4.28 0 .08.014.16.04.24.027.053.014.107-.04.16a1.55 1.55 0 0 0-.36.68c-.026.24-.053.493-.08.76a.454.454 0 0 0-.04.2.35.35 0 0 1-.04.16 3.58 3.58 0 0 0-.2.92c0 .32.027.627.08.92 0 .053.054.187.16.4a86.225 86.225 0 0 1 5.84-7.48 174.994 174.994 0 0 1 6.36-6.96c-.133.213-.28.4-.44.56-.133.16-.266.333-.4.52-.24.267-.48.52-.72.76-.213.24-.426.493-.64.76-.16.16-.28.293-.36.4-.053.053-.106.12-.16.2l-.16.24a.443.443 0 0 1-.12.08c-.053.027-.08.053-.08.08.054.187.04.293-.04.32-.08.027-.186.053-.32.08a.955.955 0 0 0-.24.16l-.48.56c-.133.16-.28.347-.44.56a.364.364 0 0 0-.04.16v.16l-.24.16-.24.16a.494.494 0 0 0-.08.12c0 .053.014.093.04.12l.08.08c.054.027.094.027.12 0 .16 0 .28-.067.36-.2.16-.16.307-.32.44-.48l.48-.56c.054-.08.12-.16.2-.24.08-.08.134-.16.16-.24.027-.24.147-.333.36-.28.134 0 .24-.093.32-.28a2.35 2.35 0 0 1 .48-.76l.64-.64.64-.64a.588.588 0 0 0 .16-.28l.16-.32a.508.508 0 0 1 .2-.12.5.5 0 0 0 .2-.12c.107-.08.2-.173.28-.28l.24-.32c.08-.107.16-.2.24-.28.107-.107.187-.213.24-.32.08-.133.2-.24.36-.32.187-.107.36-.133.52-.08.267.16.494.08.68-.24a2.04 2.04 0 0 0-.4.04c-.106 0-.226.013-.36.04 0-.027-.013-.053-.04-.08v-.08Z" fill="#000"/></svg>