<?xml version="1.0" encoding="utf-8"?>
<!-- Generator: Adobe Illustrator 25.3.1, SVG Export Plug-In . SVG Version: 6.00 Build 0)  -->
<svg version="1.1" id="Layer_1" xmlns="http://www.w3.org/2000/svg" xmlns:xlink="http://www.w3.org/1999/xlink" x="0px" y="0px"
	 viewBox="0 0 428.8 342.5" style="enable-background:new 0 0 428.8 342.5;" xml:space="preserve">
<style type="text/css">
	.st0{fill:#BC7C77;}
	.st1{fill:#5A5B5B;}
</style>
<g id="圖層_2">
	<g id="圖層_1-2">
		<path class="st0" d="M33.1,29.8h364.6v180.3H33.1V29.8z"/>
		<path class="st1" d="M405.9,284.8h-383C10.2,284.7,0,274.5,0,261.9v-239C0,10.2,10.3,0,22.9,0h383c12.6,0,22.9,10.3,22.9,22.9v239
			C428.7,274.5,418.5,284.7,405.9,284.8L405.9,284.8z M22.9,6C13.6,6,6,13.6,6,22.9v239c0,9.3,7.6,16.9,16.9,16.9h383
			c9.3,0,16.9-7.6,16.9-16.9v-239c0-9.3-7.6-16.9-16.9-16.9C405.9,6,22.9,6,22.9,6z"/>
		<path class="st1" d="M398.9,216.1h-367c-2.6,0-4.8-2.1-4.8-4.8V28.6c0-2.7,2.1-4.8,4.8-4.8l0,0h367c2.7,0,4.8,2.1,4.8,4.8v182.7
			C403.6,213.9,401.5,216,398.9,216.1L398.9,216.1z M33.1,210.1h364.6V29.8H33.1V210.1z"/>
		<path class="st1" d="M6.3,210.1h419.5v6H6.3V210.1z M224.3,249.7h-19.1c-1.7,0-3-1.3-3-3s1.3-3,3-3h19.1c1.7,0,3,1.3,3,3
			S225.9,249.7,224.3,249.7z"/>
		<path class="st1" d="M164.3,317.5l17.2-35.5l5.4,2.6l-17.2,35.5L164.3,317.5z"/>
		<path class="st1" d="M237.2,284.6l5.4-2.6l17.2,35.5l-5.4,2.6L237.2,284.6z"/>
		<path class="st1" d="M303.6,342.5H128.5v-9.8c0-8.7,7-15.8,15.8-15.8h143.6c8.7,0,15.7,7,15.8,15.7L303.6,342.5z M134.5,336.5
			h163.1v-3.8c0-5.4-4.4-9.7-9.8-9.7H144.2c-5.4,0-9.8,4.4-9.8,9.8L134.5,336.5z M183,160c-0.8,0-1.6-0.3-2.1-0.9l-28.6-28.6
			c-0.6-0.6-0.9-1.3-0.9-2.1s0.3-1.6,0.9-2.1l28.6-28.5c1.2-1.1,3.1-1.1,4.2,0.1c1.1,1.2,1.1,2.9,0,4.1l-26.5,26.5l26.5,26.5
			c1.1,1.2,1.1,3.1-0.1,4.2C184.5,159.7,183.8,160,183,160z M249,160c-1.7,0-3-1.3-3-3c0-0.8,0.3-1.6,0.9-2.1l26.5-26.5L246.9,102
			c-1.1-1.2-1.1-3.1,0.1-4.2c1.2-1.1,2.9-1.1,4.1,0l28.6,28.6c1.2,1.2,1.2,3.1,0,4.2l-28.6,28.6C250.6,159.7,249.8,160,249,160
			L249,160z M204.1,161.8c-0.4,0-0.7-0.1-1.1-0.2c-1.5-0.6-2.3-2.3-1.8-3.9L225,94.2c0.6-1.6,2.3-2.3,3.9-1.8
			c1.6,0.6,2.3,2.3,1.8,3.9l-23.8,63.5C206.5,161,205.4,161.8,204.1,161.8z"/>
	</g>
</g>
</svg>
