<svg xmlns="http://www.w3.org/2000/svg" viewBox="0 0 428.75 342.55"><defs><style>.cls-1{fill:#fff;}.cls-2{fill:#5a5b5b;}</style></defs><g id="圖層_2" data-name="圖層 2"><g id="圖層_1-2" data-name="圖層 1"><rect class="cls-1" x="33.08" y="29.78" width="364.57" height="180.27"/><path class="cls-2" d="M405.87,284.75h-383A22.92,22.92,0,0,1,0,261.87v-239A22.92,22.92,0,0,1,22.89,0h383a22.92,22.92,0,0,1,22.88,22.89v239A22.91,22.91,0,0,1,405.87,284.75ZM22.89,6A16.91,16.91,0,0,0,6,22.89v239a16.9,16.9,0,0,0,16.89,16.88h383a16.9,16.9,0,0,0,16.88-16.88v-239A16.9,16.9,0,0,0,405.87,6Z"/><path class="cls-2" d="M398.85,216.05h-367a4.8,4.8,0,0,1-4.8-4.79V28.58a4.8,4.8,0,0,1,4.8-4.8h367a4.8,4.8,0,0,1,4.8,4.8V211.26A4.8,4.8,0,0,1,398.85,216.05Zm-365.77-6H397.65V29.78H33.08Z"/><rect class="cls-2" x="6.3" y="210.05" width="419.45" height="6"/><path class="cls-2" d="M224.28,249.74H205.13a3,3,0,0,1,0-6h19.15a3,3,0,0,1,0,6Z"/><rect class="cls-2" x="155.89" y="298.08" width="39.47" height="6" transform="translate(-171.87 328.22) rotate(-64.21)"/><rect class="cls-2" x="245.51" y="281.34" width="6" height="39.47" transform="translate(-106.24 138.12) rotate(-25.79)"/><path class="cls-2" d="M303.58,342.55H128.48v-9.76A15.78,15.78,0,0,1,144.24,317H287.83a15.77,15.77,0,0,1,15.75,15.74Zm-169.1-6h163.1v-3.78a9.76,9.76,0,0,0-9.75-9.74H144.24a9.77,9.77,0,0,0-9.76,9.76Z"/><path class="cls-2" d="M183,160a3,3,0,0,1-2.12-.88l-28.59-28.59a3,3,0,0,1-.88-2.12,3,3,0,0,1,.88-2.12L180.9,97.75a3,3,0,0,1,4.24,4.24l-26.47,26.46,26.47,26.47A3,3,0,0,1,183,160Z"/><path class="cls-2" d="M249,160a3,3,0,0,1-2.12-5.12l26.46-26.47L246.92,102a3,3,0,0,1,4.24-4.24l28.58,28.58a3,3,0,0,1,0,4.24l-28.58,28.59A3,3,0,0,1,249,160Z"/><path class="cls-2" d="M204.12,161.77a3,3,0,0,1-1.06-.19,3,3,0,0,1-1.75-3.86l23.82-63.53a3,3,0,0,1,5.62,2.11l-23.82,63.52A3,3,0,0,1,204.12,161.77Z"/></g></g></svg>