<svg xmlns="http://www.w3.org/2000/svg" viewBox="0 0 428.75 342.55"><defs><style>.cls-2{fill:#5a5b5b}</style></defs><g id="圖層_2" data-name="圖層 2"><g id="圖層_1-2" data-name="圖層 1"><path style="fill:#fff" d="M33.08 29.78h364.57v180.27H33.08z"/><path class="cls-2" d="M405.87 284.75h-383A22.92 22.92 0 0 1 0 261.87v-239A22.92 22.92 0 0 1 22.89 0h383a22.92 22.92 0 0 1 22.88 22.89v239a22.91 22.91 0 0 1-22.9 22.86ZM22.89 6A16.91 16.91 0 0 0 6 22.89v239a16.9 16.9 0 0 0 16.89 16.88h383a16.9 16.9 0 0 0 16.88-16.88v-239A16.9 16.9 0 0 0 405.87 6Z"/><path class="cls-2" d="M398.85 216.05h-367a4.8 4.8 0 0 1-4.8-4.79V28.58a4.8 4.8 0 0 1 4.8-4.8h367a4.8 4.8 0 0 1 4.8 4.8v182.68a4.8 4.8 0 0 1-4.8 4.79Zm-365.77-6h364.57V29.78H33.08Z"/><path class="cls-2" d="M6.3 210.05h419.45v6H6.3zM224.28 249.74h-19.15a3 3 0 0 1 0-6h19.15a3 3 0 0 1 0 6Z"/><path class="cls-2" transform="rotate(-64.21 175.628 301.076)" d="M155.89 298.08h39.47v6h-39.47z"/><path class="cls-2" transform="rotate(-25.79 248.533 301.087)" d="M245.51 281.34h6v39.47h-6z"/><path class="cls-2" d="M303.58 342.55h-175.1v-9.76A15.78 15.78 0 0 1 144.24 317h143.59a15.77 15.77 0 0 1 15.75 15.74Zm-169.1-6h163.1v-3.78a9.76 9.76 0 0 0-9.75-9.74H144.24a9.77 9.77 0 0 0-9.76 9.76ZM183 160a3 3 0 0 1-2.12-.88l-28.59-28.59a3 3 0 0 1-.88-2.12 3 3 0 0 1 .88-2.12l28.61-28.54a3 3 0 0 1 4.24 4.24l-26.47 26.46 26.47 26.47A3 3 0 0 1 183 160ZM249 160a3 3 0 0 1-2.12-5.12l26.46-26.47L246.92 102a3 3 0 0 1 4.24-4.24l28.58 28.58a3 3 0 0 1 0 4.24l-28.58 28.59a3 3 0 0 1-2.16.83ZM204.12 161.77a3 3 0 0 1-1.06-.19 3 3 0 0 1-1.75-3.86l23.82-63.53a3 3 0 0 1 5.62 2.11l-23.82 63.52a3 3 0 0 1-2.81 1.95Z"/></g></g></svg>