<svg xmlns="http://www.w3.org/2000/svg" viewBox="0 0 350.49 363.45"><defs><style>.cls-5{fill:#5a5b5b}</style></defs><g id="圖層_2" data-name="圖層 2"><g id="圖層_1-2" data-name="圖層 1"><path class="cls-5" d="M18.19 352.15c-4.13 0-10.25-.81-14.27-5-3.69-3.83-4.78-9.46-3.24-16.73l.14-.48c8.54-21.68 36-75.9 37.11-78.2l.21-.42.34-.34L283.34 4.8l.6-.23c1.32-.51 32.47-12.09 52 3.71C349 18.87 353.29 39 348.74 67.94l-.15 1-.7.69C285.21 131.64 102 315.45 100.2 317.3l-.4.4-.51.23L23 351.77l-.36.06a28.93 28.93 0 0 1-4.45.32ZM6.5 331.9c-1 5.08-.45 8.8 1.73 11.09 3.35 3.49 10.22 3.37 13 3l75.08-33.3C105.92 303.06 281 127.34 343 66c4-26.19.31-44.05-10.82-53.09C316.67.39 290.85 8.52 286.65 10L43.07 254.87c-2.63 5.2-28.42 56.44-36.57 77.03Z"/><path class="cls-5" transform="rotate(-48.09 26.471 326.741)" d="M23.47 306.46h6v40.52h-6z"/><path class="cls-5" transform="rotate(-45.65 68.341 286.118)" d="M65.34 244.54h6v83.16h-6z"/><path class="cls-5" transform="rotate(-46.03 306.194 46.615)" d="M303.18 3.93h6v85.4h-6z"/><path class="cls-5" transform="rotate(-46.93 289.955 62.856)" d="M286.96 23.52h6v78.67h-6z"/><path d="M243.06 252.74c21.11-16 31.87-43.56 31.87-72.14A97.58 97.58 0 1 0 120.55 260s14.86 13.47 19.48 32c14.37-.17 74.64 0 74.64 0s15.17-29.23 28.39-39.26Z" style="fill:#fff"/><path class="cls-5" d="m137.7 294.94-.58-2.3c-4.12-16.58-17.12-29.09-18.47-30.36a100.58 100.58 0 1 1 159.28-81.68c0 31-12.35 58.82-33.05 74.53-12.53 9.51-27.4 37.89-27.55 38.17l-.84 1.62h-1.82c-.61 0-60.42-.17-74.6 0Zm28-6.1c18.7 0 40.75.05 47.13.07 3.46-6.39 16.46-29.51 28.38-38.56 19.21-14.58 30.68-40.65 30.68-69.75a94.58 94.58 0 1 0-149.59 76.91l.27.22c.6.55 14.4 13.21 19.74 31.16 5.28-.03 13.92-.05 23.43-.05Z"/><path class="cls-5" d="M208.73 318.73H146a13.14 13.14 0 0 1-13.13-13.13v-4.49A13.14 13.14 0 0 1 146 288h62.75a13.14 13.14 0 0 1 13.13 13.13v4.49a13.14 13.14 0 0 1-13.15 13.11ZM146 294a7.14 7.14 0 0 0-7.13 7.13v4.49a7.14 7.14 0 0 0 7.13 7.13h62.75a7.14 7.14 0 0 0 7.13-7.13v-4.49a7.14 7.14 0 0 0-7.13-7.13Z"/><path class="cls-5" d="M208.73 343.48H146a13.14 13.14 0 0 1-13.13-13.13v-4.49A13.14 13.14 0 0 1 146 312.73h62.75a13.14 13.14 0 0 1 13.13 13.13v4.49a13.14 13.14 0 0 1-13.15 13.13ZM146 318.73a7.14 7.14 0 0 0-7.13 7.13v4.49a7.13 7.13 0 0 0 7.13 7.13h62.75a7.13 7.13 0 0 0 7.13-7.13v-4.49a7.14 7.14 0 0 0-7.13-7.13Z"/><path class="cls-5" d="M178 363.45c-15.26 0-27.67-9.55-27.67-21.28h6c0 8.43 9.72 15.28 21.67 15.28s21.66-6.85 21.66-15.28h6c.01 11.73-12.4 21.28-27.66 21.28ZM215 225.25h-55.11v-6H215a12.19 12.19 0 1 0 0-24.38v-6a18.19 18.19 0 1 1 0 36.38Z"/><path class="cls-5" d="M158.29 255.64a18.19 18.19 0 0 1 .1-36.38h.1l55.15.28v6l-55.16-.28h-.06a12.19 12.19 0 0 0-.06 24.38Z"/><path class="cls-5" d="m170.32 288.79-.27-18.34H192a7.41 7.41 0 1 0 0-14.81h-37.82v-6H192a13.41 13.41 0 1 1 0 26.81h-15.86l.18 12.26ZM165.83 188.91h50.27v6h-50.27z"/><path class="cls-5" d="M167.2 194.87a13.4 13.4 0 0 1-.2-26.8l.09 6a7.4 7.4 0 1 0 .23 14.8l.1 6Z"/><path class="cls-5" d="M184.03 174.16h-18.2v-6h12.2V86.18h6v87.98z"/></g></g></svg>