<?xml version="1.0" encoding="utf-8"?>
<!-- Generator: Adobe Illustrator 25.3.1, SVG Export Plug-In . SVG Version: 6.00 Build 0)  -->
<svg version="1.1" id="Layer_1" xmlns="http://www.w3.org/2000/svg" xmlns:xlink="http://www.w3.org/1999/xlink" x="0px" y="0px"
	 viewBox="0 0 368.6 356.4" style="enable-background:new 0 0 368.6 356.4;" xml:space="preserve">
<style type="text/css">
	.st0{fill:#BC7C77;}
	.st1{fill:#FFFFFF;}
	.st2{fill:#5A5B5B;}
</style>
<circle class="st0" cx="78.6" cy="281" r="47.2"/>
<ellipse class="st0" cx="77" cy="62.5" rx="17.2" ry="12.8"/>
<path class="st0" d="M98.7,107.4c-4,8.6-18.5,9.4-21.7,9.5c-3.9,0.2-16.1,0.9-20.4-5.8c-6.4-9.9,5.6-35,20.4-35.2
	C90.6,75.8,103.9,96.4,98.7,107.4z"/>
<g id="圖層_2">
	<g id="圖層_1-2">
		<path class="st1" d="M233.9,6h114.5c7.8,0,14.1,6.3,14.1,14.1v105.2c0,7.8-6.3,14.1-14.1,14.1H233.9c-7.8,0-14.1-6.3-14.1-14.1
			V20.1C219.8,12.3,226.1,6,233.9,6z"/>
		<path class="st1" d="M232,217.1h114.5c7.8,0,14.1,6.3,14.1,14.1v105.2c0,7.8-6.3,14.1-14.1,14.1H232c-7.8,0-14.1-6.3-14.1-14.1
			V231.1C217.9,223.4,224.2,217.1,232,217.1z"/>
		<path class="st2" d="M135.4,145.4H19.3C8.6,145.4,0,136.7,0,126.1V19.3C0,8.6,8.6,0,19.3,0h116.1c10.6,0,19.3,8.6,19.3,19.3v106.8
			C154.7,136.7,146,145.4,135.4,145.4z M19.3,6C12,6,6,12,6,19.3v106.8c0,7.3,6,13.3,13.3,13.3h116.1c7.3,0,13.3-6,13.3-13.3V19.3
			c0-7.3-6-13.3-13.3-13.3C135.4,6,19.3,6,19.3,6z"/>
		<path class="st2" d="M153.9,67.8h46.2v6h-46.2V67.8z"/>
		<path class="st2" d="M190.6,88.1c-0.8,0-1.6-0.3-2.1-0.9c-1.2-1.2-1.2-3.1,0-4.2l12.2-12.2l-12.2-12.2c-1.2-1.1-1.3-3-0.1-4.2
			s3-1.3,4.2-0.1c0.1,0,0.1,0.1,0.1,0.1L207,68.7c1.2,1.2,1.2,3.1,0,4.2l-14.3,14.3C192.2,87.8,191.4,88.1,190.6,88.1z M286.1,144.4
			h6v46.2h-6V144.4z"/>
		<path class="st2" d="M289.1,198.4c-0.8,0-1.6-0.3-2.1-0.9l-14.3-14.3c-1.2-1.2-1.2-3.1,0-4.2c1.2-1.2,3.1-1.2,4.2,0l12.2,12.2
			l12.1-12.2c1.2-1.2,3.1-1.2,4.2,0s1.2,3.1,0,4.2l-14.3,14.3C290.7,198.1,289.9,198.4,289.1,198.4z M166,280.7h46.2v6H166V280.7z"
			/>
		<path class="st2" d="M175.5,301c-0.8,0-1.6-0.3-2.1-0.9l-14.3-14.3c-1.2-1.2-1.2-3.1,0-4.2l14.3-14.3c1.2-1.1,3.1-1.1,4.2,0.1
			c1.1,1.2,1.1,2.9,0,4.1l-12.2,12.2l12.2,12.2c1.2,1.2,1.2,3.1,0,4.2l0,0C177,300.7,176.3,301,175.5,301L175.5,301z M74.2,301
			L74.2,301c-1,0-1.8-0.4-2.3-1.1l-13.7-17.1c-1.1-1.3-0.9-3.2,0.4-4.2c1.3-1.1,3.2-0.9,4.2,0.4l0.1,0.1l11.4,14.4l20.1-22.4
			c1.1-1.3,3-1.4,4.2-0.3c1.3,1.1,1.4,3,0.3,4.2l-0.1,0.1L76.4,300C75.9,300.6,75,301,74.2,301z M293.9,261.4h-35.2
			c-1.7,0-3-1.3-3-3s1.3-3,3-3h35.2c1.7,0,3,1.3,3,3S295.6,261.4,293.9,261.4L293.9,261.4z M316,286.7h-57.3c-1.7,0-3-1.3-3-3
			s1.3-3,3-3H316c1.7,0,3,1.3,3,3S317.7,286.7,316,286.7z M291.3,47.8h-30.8c-1.7,0-3-1.3-3-3s1.3-3,3-3h30.8c1.7,0,3,1.3,3,3
			S292.9,47.8,291.3,47.8z M317.7,75.7h-57.2c-1.7,0-3-1.3-3-3s1.3-3,3-3h57.2c1.7,0,3,1.3,3,3S319.4,75.7,317.7,75.7z M317.7,101.6
			h-57.2c-1.7,0-3-1.3-3-3s1.3-3,3-3h57.2c1.7,0,3,1.3,3,3S319.4,101.6,317.7,101.6z M77.3,80.3c-9.7,0-17.5-7.8-17.5-17.5
			s7.8-17.5,17.5-17.5s17.5,7.8,17.5,17.5l0,0C94.9,72.5,87,80.3,77.3,80.3z M77.3,51.3c-6.4,0-11.5,5.2-11.5,11.5
			S71,74.3,77.3,74.3s11.5-5.2,11.5-11.5l0,0C88.9,56.5,83.7,51.3,77.3,51.3z"/>
		<path class="st2" d="M77.6,119.8c-27.6,0-50-22.4-50-50s22.4-50,50-50s50,22.4,50,50S105.2,119.8,77.6,119.8z M77.6,25.8
			c-24.3,0-44,19.7-44,44s19.7,44,44,44s44-19.7,44-44S101.9,25.9,77.6,25.8L77.6,25.8z M77.6,331c-27.6,0-50-22.4-50-50
			s22.4-50,50-50s50,22.4,50,50l0,0C127.6,308.6,105.2,331,77.6,331z M77.6,237c-24.3,0-44,19.7-44,44s19.7,44,44,44s44-19.7,44-44
			S101.9,237,77.6,237z"/>
		<path class="st2" d="M56.6,111.2c-1.7,0-3-1.3-3-3c0,0,0,0,0-0.1c0-0.8,0.5-20.1,10.4-29.2c3.7-3.4,8.6-5.1,13.6-4.6
			c1.7,0.1,2.9,1.5,2.8,3.2s-1.5,2.9-3.2,2.8c-3.3-0.3-6.7,0.8-9.1,3.1c-6.7,6.1-8.4,20-8.5,24.9C59.5,109.9,58.2,111.2,56.6,111.2z
			"/>
		<path class="st2" d="M99.4,111.2c-1.7,0-3-1.3-3-3c0-0.2-0.5-17.6-8.4-24.9c-2.5-2.3-5.8-3.4-9.1-3.1c-1.7,0.1-3.1-1.1-3.2-2.8
			s1.1-3.1,2.8-3.2c5-0.5,10,1.3,13.6,4.7c9.9,9.1,10.4,28.4,10.4,29.2C102.4,109.9,101.1,111.2,99.4,111.2
			C99.5,111.3,99.5,111.3,99.4,111.2L99.4,111.2z M316,313.2h-57.3c-1.7,0-3-1.3-3-3s1.3-3,3-3H316c1.7,0,3,1.3,3,3
			S317.7,313.2,316,313.2z M349.3,145.4H233.2c-10.6,0-19.3-8.6-19.3-19.3V19.3C214,8.6,222.6,0,233.2,0h116.1
			c10.6,0,19.3,8.6,19.3,19.3v106.8C368.6,136.7,360,145.4,349.3,145.4z M233.2,6c-7.3,0-13.3,6-13.3,13.3v106.8
			c0,7.3,6,13.3,13.3,13.3h116.1c7.3,0,13.3-6,13.3-13.3V19.3c0-7.3-6-13.3-13.3-13.3C349.3,6,233.2,6,233.2,6z"/>
		<path class="st2" d="M347.3,356.4H231.2c-10.6,0-19.3-8.6-19.3-19.3V230.3c0-10.6,8.6-19.3,19.3-19.3h116.1
			c10.6,0,19.3,8.6,19.3,19.3v106.8C366.6,347.8,358,356.4,347.3,356.4L347.3,356.4z M231.2,217.1c-7.3,0-13.3,5.9-13.3,13.3v106.8
			c0,7.3,6,13.3,13.3,13.3h116.1c7.3,0,13.3-6,13.3-13.3V230.3c0-7.3-6-13.3-13.3-13.3H231.2V217.1z M136.6,356.4H20.5
			c-10.6,0-19.3-8.6-19.3-19.3V230.3c0-10.6,8.6-19.3,19.3-19.3h116.1c10.6,0,19.3,8.6,19.3,19.3v106.8
			C155.9,347.8,147.3,356.4,136.6,356.4z M20.5,217.1c-7.3,0-13.3,5.9-13.3,13.3v106.8c0,7.3,6,13.3,13.3,13.3h116.1
			c7.3,0,13.3-6,13.3-13.3V230.3c0-7.3-6-13.3-13.3-13.3H20.5V217.1z"/>
	</g>
</g>
</svg>
