<svg xmlns="http://www.w3.org/2000/svg" viewBox="0 0 368.63 356.42"><defs><style>.cls-1{fill:#fff}.cls-2{fill:#5a5b5b}</style></defs><g id="圖層_2" data-name="圖層 2"><g id="圖層_1-2" data-name="圖層 1"><rect class="cls-1" x="219.8" y="6" width="142.69" height="133.38" rx="14.09"/><rect class="cls-1" x="7.24" y="217.05" width="142.69" height="133.38" rx="14.09"/><rect class="cls-1" x="217.94" y="217.05" width="142.69" height="133.38" rx="14.09"/><rect class="cls-1" x="6" y="6" width="142.69" height="133.38" rx="14.09"/><path class="cls-2" d="M135.4 145.38H19.29A19.31 19.31 0 0 1 0 126.09V19.29A19.31 19.31 0 0 1 19.29 0H135.4a19.31 19.31 0 0 1 19.29 19.29v106.8a19.31 19.31 0 0 1-19.29 19.29ZM19.29 6A13.3 13.3 0 0 0 6 19.29v106.8a13.31 13.31 0 0 0 13.29 13.29H135.4a13.31 13.31 0 0 0 13.29-13.29V19.29A13.3 13.3 0 0 0 135.4 6Z"/><path class="cls-2" d="M153.89 67.82h46.24v6h-46.24z"/><path class="cls-2" d="M190.6 88.11a3 3 0 0 1-2.12-.88 3 3 0 0 1 0-4.24l12.17-12.17-12.17-12.18a3 3 0 1 1 4.24-4.24L207 68.7a3 3 0 0 1 0 4.24l-14.28 14.29a3 3 0 0 1-2.12.88ZM286.15 144.4h6v46.24h-6z"/><path class="cls-2" d="M289.15 198.4a3 3 0 0 1-2.12-.88l-14.3-14.29A3 3 0 0 1 277 179l12.17 12.18L301.32 179a3 3 0 0 1 4.24 4.25l-14.29 14.29a3 3 0 0 1-2.12.86ZM165.96 280.73h46.24v6h-46.24z"/><path class="cls-2" d="M175.49 301a3 3 0 0 1-2.12-.88l-14.29-14.3a3 3 0 0 1 0-4.24l14.29-14.29a3 3 0 0 1 4.24 4.24l-12.17 12.17 12.17 12.17a3 3 0 0 1 0 4.25 3 3 0 0 1-2.12.88ZM74.19 301h-.09a3 3 0 0 1-2.26-1.13l-13.65-17.13a3 3 0 1 1 4.69-3.74l11.44 14.38 20.09-22.44a3 3 0 1 1 4.47 4L76.42 300a3 3 0 0 1-2.23 1ZM293.93 261.41H258.7a3 3 0 0 1 0-6h35.23a3 3 0 0 1 0 6ZM316 286.73h-57.3a3 3 0 0 1 0-6H316a3 3 0 1 1 0 6ZM291.29 47.83h-30.83a3 3 0 0 1 0-6h30.83a3 3 0 0 1 0 6ZM317.71 75.69h-57.25a3 3 0 0 1 0-6h57.25a3 3 0 0 1 0 6ZM317.71 101.56h-57.25a3 3 0 0 1 0-6h57.25a3 3 0 0 1 0 6ZM77.35 80.35a17.53 17.53 0 1 1 17.53-17.53 17.55 17.55 0 0 1-17.53 17.53Zm0-29.06a11.53 11.53 0 1 0 11.53 11.53 11.55 11.55 0 0 0-11.53-11.53Z"/><path class="cls-2" d="M77.6 119.83a50 50 0 1 1 50-50 50.06 50.06 0 0 1-50 50Zm0-94a44 44 0 1 0 44 44 44.06 44.06 0 0 0-44-44.01ZM77.6 331a50 50 0 1 1 50-50 50.07 50.07 0 0 1-50 50Zm0-94a44 44 0 1 0 44 44 44.06 44.06 0 0 0-44-44Z"/><path class="cls-2" d="M56.57 111.25a3 3 0 0 1-3-3.06c0-.81.48-20.11 10.39-29.2a17.56 17.56 0 0 1 13.59-4.63 3 3 0 1 1-.41 6A11.63 11.63 0 0 0 68 83.42c-6.67 6.11-8.36 20-8.45 24.88a3 3 0 0 1-2.98 2.95Z"/><path class="cls-2" d="M99.36 111.25a3 3 0 0 1-3-3c0-.25-.46-17.57-8.45-24.89a11.65 11.65 0 0 0-9.11-3.07 3 3 0 0 1-.42-6A17.55 17.55 0 0 1 92 79c9.91 9.09 10.38 28.39 10.39 29.2a3 3 0 0 1-2.94 3.06ZM316 313.16h-57.3a3 3 0 0 1 0-6H316a3 3 0 0 1 0 6ZM349.34 145.38H233.23a19.31 19.31 0 0 1-19.29-19.29V19.29A19.31 19.31 0 0 1 233.23 0h116.11a19.31 19.31 0 0 1 19.29 19.29v106.8a19.31 19.31 0 0 1-19.29 19.29ZM233.23 6a13.3 13.3 0 0 0-13.29 13.29v106.8a13.31 13.31 0 0 0 13.29 13.29h116.11a13.31 13.31 0 0 0 13.29-13.29V19.29A13.3 13.3 0 0 0 349.34 6Z"/><path class="cls-2" d="M347.34 356.42H231.23a19.31 19.31 0 0 1-19.29-19.29v-106.8a19.31 19.31 0 0 1 19.29-19.28h116.11a19.31 19.31 0 0 1 19.29 19.28v106.8a19.31 19.31 0 0 1-19.29 19.29ZM231.23 217.05a13.3 13.3 0 0 0-13.29 13.28v106.8a13.3 13.3 0 0 0 13.29 13.29h116.11a13.3 13.3 0 0 0 13.29-13.29v-106.8a13.3 13.3 0 0 0-13.29-13.28ZM136.65 356.42H20.53a19.31 19.31 0 0 1-19.29-19.29v-106.8a19.31 19.31 0 0 1 19.29-19.28h116.12a19.31 19.31 0 0 1 19.29 19.28v106.8a19.31 19.31 0 0 1-19.29 19.29ZM20.53 217.05a13.31 13.31 0 0 0-13.29 13.28v106.8a13.31 13.31 0 0 0 13.29 13.29h116.12a13.31 13.31 0 0 0 13.29-13.29v-106.8a13.31 13.31 0 0 0-13.29-13.28Z"/></g></g></svg>