<?xml version="1.0" encoding="utf-8"?>
<!-- Generator: Adobe Illustrator 25.3.1, SVG Export Plug-In . SVG Version: 6.00 Build 0)  -->
<svg version="1.1" id="Layer_1" xmlns="http://www.w3.org/2000/svg" xmlns:xlink="http://www.w3.org/1999/xlink" x="0px" y="0px"
	 viewBox="0 0 350.5 363.5" style="enable-background:new 0 0 350.5 363.5;" xml:space="preserve">
<style type="text/css">
	.st0{fill:#5A5B5B;}
	.st1{fill:#BC7C77;}
</style>
<g id="圖層_2">
	<g id="圖層_1-2">
		<path class="st0" d="M18.2,352.1c-4.1,0-10.2-0.8-14.3-5c-3.7-3.8-4.8-9.5-3.2-16.7l0.1-0.5c8.5-21.7,36-75.9,37.1-78.2l0.2-0.4
			l0.3-0.3L283.3,4.8l0.6-0.2c1.3-0.5,32.5-12.1,52,3.7C349,18.9,353.3,39,348.7,67.9l-0.1,1l-0.7,0.7
			c-62.7,62-245.9,245.8-247.7,247.7l-0.4,0.4l-0.5,0.2L23,351.8l-0.4,0.1C21.2,352.1,19.7,352.2,18.2,352.1z M6.5,331.9
			c-1,5.1-0.4,8.8,1.7,11.1c3.4,3.5,10.2,3.4,13,3l75.1-33.3C105.9,303.1,281,127.3,343,66c4-26.2,0.3-44-10.8-53.1
			c-15.5-12.5-41.3-4.4-45.5-2.9L43.1,254.9C40.4,260.1,14.6,311.3,6.5,331.9z"/>
		<path class="st0" d="M9.4,315.4l4-4.5L43.5,338l-4,4.5L9.4,315.4z"/>
		<path class="st0" d="M36.5,259.2l4.2-4.3l59.5,58.1l-4.2,4.3L36.5,259.2z"/>
		<path class="st0" d="M273.4,19.1l4.2-4.3L339,74.1l-4.2,4.3L273.4,19.1z"/>
		<path class="st0" d="M259.2,38.2l4.1-4.4l57.5,53.7l-4.1,4.4L259.2,38.2z"/>
		<path class="st1" d="M243.1,252.7c21.1-16,31.9-43.6,31.9-72.1c0-53.9-43.7-97.6-97.6-97.5s-97.6,43.7-97.5,97.6
			c0,31.5,15.2,61,40.8,79.3c0,0,14.9,13.5,19.5,32c14.4-0.2,74.6,0,74.6,0S229.8,262.8,243.1,252.7z"/>
		<path class="st0" d="M137.7,294.9l-0.6-2.3c-4.1-16.6-17.1-29.1-18.5-30.4c-45.1-32.4-55.4-95.3-23-140.4s95.3-55.4,140.4-23
			c26.3,18.9,41.9,49.3,41.9,81.7c0,31-12.4,58.8-33.1,74.5c-12.5,9.5-27.4,37.9-27.6,38.2l-0.8,1.6h-1.8c-0.6,0-60.4-0.2-74.6,0
			L137.7,294.9z M165.7,288.8c18.7,0,40.8,0,47.1,0.1c3.5-6.4,16.5-29.5,28.4-38.6c19.2-14.6,30.7-40.6,30.7-69.8
			c0-52.2-42.3-94.6-94.6-94.6c-52.2,0-94.6,42.3-94.6,94.6c0,30.5,14.7,59.2,39.6,77l0.3,0.2c0.6,0.5,14.4,13.2,19.7,31.2
			C147.6,288.9,156.2,288.8,165.7,288.8L165.7,288.8z"/>
		<path class="st0" d="M208.7,318.7H146c-7.2,0-13.1-5.9-13.1-13.1v-4.5c0-7.2,5.9-13.1,13.1-13.1h62.8c7.2,0,13.1,5.9,13.1,13.1
			v4.5C221.9,312.9,216,318.7,208.7,318.7L208.7,318.7z M146,294c-3.9,0-7.1,3.2-7.1,7.1v4.5c0,3.9,3.2,7.1,7.1,7.1h62.8
			c3.9,0,7.1-3.2,7.1-7.1v-4.5c0-3.9-3.2-7.1-7.1-7.1H146z"/>
		<path class="st0" d="M208.7,343.5H146c-7.2,0-13.1-5.9-13.1-13.1v-4.5c0-7.2,5.9-13.1,13.1-13.1h62.8c7.2,0,13.1,5.9,13.1,13.1
			v4.5C221.9,337.6,216,343.5,208.7,343.5L208.7,343.5L208.7,343.5z M146,318.7c-3.9,0-7.1,3.2-7.1,7.1v4.5c0,3.9,3.2,7.1,7.1,7.1
			l0,0h62.8c3.9,0,7.1-3.2,7.1-7.1l0,0v-4.5c0-3.9-3.2-7.1-7.1-7.1H146z"/>
		<path class="st0" d="M178,363.5c-15.3,0-27.7-9.5-27.7-21.3h6c0,8.4,9.7,15.3,21.7,15.3s21.7-6.9,21.7-15.3h6
			C205.7,353.9,193.3,363.5,178,363.5z M215,225.2h-55.1v-6H215c6.7,0,12.2-5.5,12.2-12.2s-5.5-12.2-12.2-12.2v-6
			c10,0,18.2,8.1,18.2,18.2S225,225.2,215,225.2z"/>
		<path class="st0" d="M158.3,255.6c-10,0-18.2-8.2-18.1-18.2s8.2-18.2,18.2-18.1l0,0h0.1l55.2,0.3v6l-55.2-0.3h-0.1
			c-6.7,0-12.2,5.4-12.2,12.2s5.4,12.2,12.2,12.2l0,0L158.3,255.6z"/>
		<path class="st0" d="M170.3,288.8l-0.3-18.3h22c4.1,0.2,7.5-3,7.7-7.1s-3-7.5-7.1-7.7c-0.2,0-0.4,0-0.5,0h-37.8v-6H192
			c7.4-0.2,13.6,5.6,13.8,13c0.2,7.4-5.6,13.6-13,13.8c-0.2,0-0.5,0-0.7,0h-15.9l0.2,12.3H170.3z M165.8,188.9h50.3v6h-50.3V188.9z"
			/>
		<path class="st0" d="M167.2,194.9c-7.4,0.1-13.4-5.9-13.5-13.3s5.9-13.4,13.3-13.5l0.1,6c-4.1,0.1-7.3,3.4-7.3,7.5
			s3.4,7.3,7.5,7.3l0.1,6H167.2z"/>
		<path class="st0" d="M184,174.2h-18.2v-6H178v-82h6V174.2z"/>
	</g>
</g>
</svg>
